<svg version="1.0" xmlns="http://www.w3.org/2000/svg" width="2162.67" height="2162.67" viewBox="0 0 1622 1622"><path d="M482.9.3c-.4 1.3-1 5.3-1.3 10.2-.3 3.3-.8 9.4-1.1 13.6-1.3 16-1.3 30.9-.1 30.2.8-.5.8-.3 0 .8-1.2 1.4-1.2 13.6 0 32.4.7 11.2 2 23.9 3.2 31 .3 1.6.7 4.6.9 6.5.5 4.6 3.1 17.5 5.6 27.5 1.1 4.4 2.2 8.9 2.5 10.1 1.1 5.6 9.7 30.1 13.9 39.9 7.8 17.9 23.4 46.3 26.8 48.6.5.3.8.9.7 1.3-.1.7 16 22.4 19 25.7.8.9 4.7 5.1 8.5 9.4 9.9 11.1 24.4 25.3 37.1 36.2 11.3 9.7 15.2 13.1 17.2 15 1.2 1.3 2.5 2.3 2.8 2.3.6 0 26.3 21.9 38.8 33 17.3 15.4 41.7 40 39.7 40-.3 0-.1.4.5.8 1.7 1.2 6.8 9.3 9.8 15.7 3.6 7.6 6.4 16.3 7.2 22.3.3 2.6.8 5.6 1 6.7.9 4.1.3 18.5-1 26.7-2.4 15.3-14.5 35.2-28.2 46.8-7.1 5.9-19 13-22 13-.8 0-1.4.5-1.4 1.2 0 .6-.3.9-.6.5-.3-.3-2.6.3-5 1.3-2.4 1.1-4.4 1.8-4.4 1.6 0-.2-2.6.3-5.7 1-5.9 1.3-24.4 1.3-31.3 0-15.5-3.1-32.1-12.1-43.8-23.6-6.3-6.3-17.4-22.7-17.2-25.5 0-.3-.7-1.9-1.5-3.5-1.2-2.4-3.8-4.1-11.1-7.5-5.3-2.5-10.2-4.5-11-4.5-.8 0-1.4-.5-1.4-1 0-.6-.5-1-1-1-.6 0-4.1-1.4-7.8-3.1-3.7-1.8-7.1-3.3-7.7-3.5-.5-.1-4.6-1.9-9-3.9s-10-4.6-12.5-5.7c-2.5-1.1-7-3.2-10-4.6-3-1.4-5.7-2.7-6-2.7-.3-.1-2.1-.8-4-1.7-1.9-.9-6.1-2.7-9.2-4.2l-5.7-2.5-4.8 5.1c-2.6 2.8-5.5 5.9-6.3 6.8-1.2 1.3-5.4 6.5-9.2 11.5-.4.5-2.3 2.9-4 5.1-1.8 2.3-5 6.6-7 9.5-2.1 3-5.2 7.4-7 9.9-1.8 2.5-3.3 4.7-3.3 5 0 .3-1.7 3.1-3.8 6.3-2 3.1-3.7 6.2-3.7 6.7 0 .6-.3 1-.7 1-.5 0-1.3 1-1.9 2.3-.6 1.2-4 7.8-7.6 14.7-3.5 6.9-8.8 18.1-11.7 25-2.9 6.9-5.6 13.4-6.1 14.5-1.7 3.9-9.7 28.9-10.6 33-.2 1.1-.7 3.3-1 4.9-.2 1.6-.7 3.2-.9 3.6-.2.3-.6 1.7-.9 3.1-.3 1.3-.7 3.5-1 4.9-.3 1.4-.9 4.1-1.2 6-.4 1.9-.8 4.4-1.1 5.5-.2 1.1-.6 3.6-.8 5.5-.3 1.9-.8 5.1-1.1 7-2.3 14-2.9 24.7-2.9 49 .1 12.9.4 27.5.9 32.5.4 4.9.9 10.2.9 11.7.1 1.6.4 2.8.7 2.8.3 0 .6 1.2.6 2.7.3 5.5 1.9 16.8 2.9 20.3.2.8.7 3.1 1 5 1.6 10.1 9.4 37.9 13.5 48.5.4 1.1 2 5.4 3.6 9.5 1.5 4.1 3.4 9.1 4.2 11l1.4 3.4 3.2-3.6c1.8-2 5-5.9 7.1-8.7 2.2-2.8 4.3-5.1 4.7-5.1.4 0 .8-.4.8-.9s1.2-2.3 2.8-3.9c1.5-1.5 7.7-8.2 13.7-14.7 6.1-6.5 11.5-12.3 12.1-12.9 12.4-12 23.8-22.5 33.5-30.8 2.7-2.3 2.9-4.2 1.5-9.8-.4-1.4-.9-4.1-1.2-6-.2-1.9-.6-4.2-.9-5-.2-.8-.7-3.8-1.1-6.5-.3-2.8-.8-5.8-1-6.8-1.2-6.4-2.4-40.2-1.5-42.1.2-.5.6-4.6.8-9 .3-7.1.8-12.1 1.3-12.1.1 0 .3-1.6.4-3.5.2-3.1 1.2-9.3 2.1-14 .2-.8 1.3-5.3 2.5-10s2.3-9.2 2.4-10c.2-1.5 3.2-11.1 4.3-14 .4-.8.7-1.7.8-2 .7-1.9 2-5.4 4.3-11 1.5-3.6 2.7-6.7 2.7-7 .1-1.2 4.9-10 5.5-10 .4 0 1.6 1.1 2.8 2.5 1.2 1.4 2 2.5 1.8 2.5-.3 0 .8 1.3 2.2 2.8 1.5 1.6 4.8 5.1 7.3 7.8 8.3 8.8 18.5 17.5 28.8 24.4 9 6 31.2 17.3 36.6 18.6.6.1 4.4 1.3 8.5 2.7 4.1 1.4 8.6 2.8 10 3.1 9.5 2.1 12.1 2.6 16.5 3.2 2.8.4 5.5.7 6 .8.6.1 1.5.4 2 .8 1.3.8 42.9.3 47.5-.6 1.9-.4 4.9-.8 6.5-1 4.5-.6 15.1-3.2 23-5.5 3.9-1.2 7.7-2.3 8.5-2.6.8-.2 4.4-1.6 7.9-3 37.1-15.3 67.8-41.6 88.7-76.1 7.4-12.2 18.6-37.2 19.9-44.4.1-.3.4-1.4.8-2.5.3-1.1.8-3.1 1.1-4.5.3-1.4 1-4.3 1.6-6.5.5-2.2 1.3-5.6 1.6-7.5.3-1.9.7-4.6 1-6 2.6-14.6 2.3-43.5-.6-56.4-.6-2.7-.8-5.1-.6-5.4.3-.2.1-1.2-.4-2.2-.5-.9-1.2-3.2-1.5-5-1.9-10.7-13.9-39.4-22.5-53.5-1.6-2.8-3.3-5.7-3.7-6.5-.4-.8-1.2-2-1.7-2.7-2.8-3.2-3.6-4.3-3.6-4.9 0-.9-9.8-13.7-18.7-24.4-4.9-5.9-31.5-32.4-37.6-37.5-2.7-2.2-6.3-5.3-8-6.8-1.8-1.6-4.9-4.3-7.1-6-2.1-1.8-7.3-6.1-11.5-9.6s-9.3-7.7-11.4-9.5c-2.1-1.7-4.9-4-6.1-5.1-1.3-1.1-4.5-3.8-7.1-6-18.9-16.1-40.9-38.5-49.4-50.3-4.7-6.4-4.8-6.9-1.9-5 4.3 2.8 17 10.2 21.3 12.3 2.2 1.1 4.2 2.2 4.5 2.5.9.9 20.9 11.1 30.1 15.4 3 1.4 5.9 2.9 6.3 3.3.3.4 1.2.8 1.9.9.7.1 4.7 1.8 8.9 3.8 4.3 2.1 8 3.7 8.3 3.7.3-.1 2.7 1 5.3 2.3 4.3 2.2 26.2 11.3 28.7 12 .6.2 2.1.8 3.5 1.3 3.6 1.6 15.6 6.2 22 8.5 3 1.2 6.4 2.5 7.5 2.9 2 .9 18.4 6.9 26 9.6 2.2.8 5.4 2 7 2.7 1.7.8 6.8 2.8 11.5 4.6 7.9 3 32.6 13.3 36 15 .8.5 7.4 3.7 14.5 7.1 7.2 3.5 13.2 6.6 13.5 6.9.3.3 2.1 1.3 4 2.2 4.4 2.2 13.3 7.1 14 7.8.3.3 3.4 2.3 7 4.4 3.6 2.2 6.7 4.3 6.8 4.8.2.4.8.8 1.2.8.5 0 2.9 1.4 5.2 3 2.4 1.7 6 4.2 8.1 5.6 2 1.3 4.5 3.1 5.5 3.8.9.8 4.8 3.8 8.6 6.6 3.7 2.9 7.6 6 8.6 6.9.9.9 4.1 3.6 7 6.1 13.7 11.6 35 32.8 41.9 41.9 1.4 1.9 4.1 5.1 5.8 7 1.8 2 3.3 3.9 3.3 4.3 0 .4.6 1.3 1.3 2 .7.7 2.8 3.5 4.7 6.3 1.9 2.7 3.7 5.2 4.1 5.5.3.3 1.6 2.3 2.9 4.5 1.3 2.2 2.7 4.2 3 4.5.3.3 1.4 2.1 2.3 4.1.9 2 2.3 4.2 3.2 4.9.8.7 1.5 1.6 1.5 2.1 0 .4 1.3 3.1 3 5.9 1.6 2.7 2.7 5 2.5 5-.3 0 .6 1.8 2 4s2.5 4.6 2.5 5.3c0 .7.4 1.7.9 2.2 2 2.1 14 33.7 15.6 41.1.2 1 1.1 4.4 1.9 7.6.8 3.1 1.7 6.8 2 8.2.3 1.4.7 3.4 1 4.4.5 1.5.9 3.7 2.1 9.7.5 2.6 1.5 10.1 2 14.4.2 1.9.6 4.8.9 6.5 3 18.9 1.9 65.1-1.9 82.6-.7 3.2-1.2 5.9-1.9 10.1-.3 1.9-.8 4.5-1.1 5.9-.3 1.4-.8 3.6-1.1 5-.3 1.4-.8 3.4-1.1 4.5-.8 2.3-1 3.1-1.7 6.3-.3 1.3-.8 3.2-1.1 4.2-.5 1.5 1.5 2.9 11.7 8 6.8 3.4 13.7 6.9 15.3 7.9 1.7 1 5 2.9 7.5 4.3 9.1 5.1 28.5 17.2 28.8 18 .2.4.9.8 1.6.8.7 0 2.1.8 3.2 1.9 1.1 1 3.1 2.4 4.4 3.1 1.3.7 2.9 1.7 3.4 2.2 2.8 2.3 15 10.7 15.3 10.4.3-.3 5.3-14.3 5.8-16.1.1-.6.5-1.7.8-2.5.8-2 3-9.3 3.3-10.5.1-.6 1.2-4.8 2.5-9.5 1.2-4.7 2.3-9.2 2.4-10 .1-.8.5-2.2.9-3 .3-.8.8-3.1 1-5 .3-1.9.5-3.5.6-3.5.2 0 .7-2.6 1.5-7.5.3-2.5 1-6.2 1.6-8.2.5-2 .9-4 .8-4.5-.1-.4-.1-1 .1-1.3.3-1 1-6.6 1.5-12 .2-3 .5-5.5.6-5.5.1 0 .6-5 1.3-14.9.3-3.8.7-7.1 1-7.3.3-.3.1-1.5-.4-2.8-.5-1.3-.6-2.6-.3-2.9 1-.9 1-27.9.1-29.9-.6-1.1-.5-1.7.2-1.7.6 0 .8-.5.4-1.2-.4-.6-.9-4.4-1-8.4-.2-4-.6-9.2-.8-11.6-.3-2.3-.8-6.8-1.1-9.8-.3-3-1.5-10.9-2.6-17.5s-2.2-13.1-2.5-14.5c-.4-2.3-1-5.3-3.3-14.8-2.5-10.4-7.4-27.3-10.1-34.7-1-2.8-3.1-8.4-4.6-12.5-1.4-4.1-3.7-9.9-5-12.8-1.3-2.9-2.4-5.9-2.4-6.7 0-.8-.4-1.5-1-1.5-.5 0-1-.7-1-1.5s-.9-3-2-5c-1.1-1.9-2-3.7-2-4 0-.3-2.1-4.7-4.7-9.8-2.6-5-5.4-10.6-6.2-12.2-.8-1.7-1.8-3.2-2.1-3.5-.8-.8-7.4-11.9-10.7-18.3-.8-1.5-1.9-2.7-2.4-2.7s-.9-.4-.9-.9c0-.9-10.7-17-12-18.1-.3-.3-1.7-2.1-3-4s-3-4.2-3.7-5c-.7-.8-4-4.9-7.3-9s-7.8-9.4-10-11.8c-2.2-2.3-3.8-4.2-3.7-4.2.8 0-25.5-26.1-33.2-33-4.7-4.1-9.4-8.4-10.6-9.5-1.2-1.1-3.7-3.2-5.6-4.6-1.9-1.5-4.4-3.5-5.6-4.6-1.2-1.1-3.4-2.8-4.8-3.9-1.4-1-6.7-4.9-11.6-8.7-4.9-3.7-9.3-6.7-9.8-6.7s-1.1-.4-1.3-.8c-.4-1.2-9.5-7.2-10.7-7.2-.6 0-1.1-.4-1.1-.8 0-.5-1.6-1.7-3.5-2.8-1.9-1-3.5-2.2-3.5-2.6 0-.5-.5-.8-1.1-.8-.7 0-4.2-2-8-4.5s-7.1-4.5-7.4-4.5c-.3 0-2.2-1.1-4.3-2.3-9-5.7-43.5-23.6-55.2-28.6-5.9-2.6-14-6.2-20.5-9.1-2.2-1-6.7-2.8-10-4.1-3.3-1.2-7.3-2.8-9-3.5-3.8-1.6-16.7-6.5-18-6.8-.5-.2-2.1-.7-3.5-1.3-1.4-.5-7.4-2.7-13.5-4.8-6-2.1-11.4-4.2-11.9-4.6-.6-.5-1.5-.9-2.2-.9-.6 0-2.9-.8-5-1.7-2.2-.9-4.7-1.8-5.6-2-.9-.1-4.2-1.4-7.2-2.7-3.1-1.4-5.6-2.2-5.6-1.9 0 .3-.6 0-1.3-.6-.8-.6-3.3-1.7-5.6-2.5-4.1-1.5-5.8-2.2-15.3-6.5-2.6-1.1-4.9-2.1-5.2-2.1-.2 0-3.4-1.4-7.2-3.2-3.8-1.7-7.1-3.2-7.4-3.3-.3 0-6.6-3-14-6.6-7.4-3.6-13.7-6.5-14-6.5-.3.1-1.9-.9-3.7-2.2-1.7-1.2-3.3-2.2-3.6-2.2-.2 0-5.3-2.8-11.3-6.1-10.1-5.7-13.5-7.8-29.9-18.4-6.4-4.2-27-19.7-32-24C608 54.7 590.2 30.6 587.4 16c-.3-1.3-.7-2.6-.8-2.8-.7-.6-8-1.8-17.6-2.7-5.4-.5-12.4-1.3-16.5-1.9-1.6-.2-5.2-.7-8-1.1-10-1.2-11.1-1.4-15.7-2-5.3-.8-10.1-1.3-16.8-1.9-2.5-.2-4.7-.5-5-.6-.3-.1-.8-.2-1.3-.1-.4.1-3.8-.3-7.5-.9C488.6.7 483 0 482.9.3z"/><path d="M804 738c0 .3-3.7.6-8.3.6-7.2.2-15.4.8-23.7 1.9-1.4.2-4.6.6-7.3.9-2.6.2-6 .7-7.5 1-1.5.3-4.3.8-6.2 1-3.8.6-7.8 1.3-12.5 2.3-1.6.3-3.7.8-4.5.9-.8.1-2.6.5-4 .8-1.4.3-3.4.8-4.5 1-1.1.2-3.8.9-6 1.4-2.2.6-5.1 1.3-6.5 1.6-1.4.3-4.1 1-6 1.6-1.9.6-4.4 1.3-5.5 1.5-1.1.3-5.4 1.6-9.5 2.9-4.1 1.4-7.8 2.2-8.2 2-.4-.3-.8 0-.8.5 0 .6-.6 1.1-1.3 1.1-.7 0-6.7 2.1-13.2 4.6-6.6 2.5-14 5.3-16.5 6.2-2.5 1-5.1 2.3-5.8 2.9-.7.7-1.9 1.3-2.7 1.3-1.3 0-30 14.3-39 19.5-2.7 1.6-5.9 3.4-7 4-3.1 1.7-8.8 5.3-11 6.9-1.1.8-2.4 1.5-2.9 1.5-.5-.1-1.2.3-1.5.8-.3.4-4.9 3.7-10.1 7.2-11.3 7.6-27.8 20.2-37.5 28.7-3.8 3.3-8.3 7.1-9.9 8.5-5.3 4.5-26.1 25.4-33.6 33.8-4.1 4.7-8.3 9.3-9.2 10.3-1 1-1.8 2.2-1.8 2.8 0 .5-.3 1-.8 1-.4 0-4.6 5.1-9.2 11.2-4.7 6.2-8.7 11.5-9 11.8-1.1 1-6.5 9.6-7.2 11.2-.4 1-1.2 1.8-1.8 1.8-.5 0-1 .4-1 .9 0 .6-1.3 2.9-2.9 5.3-8.1 12-29.1 51.2-29.1 54.3 0 .8-.4 1.5-1 1.5-.5 0-1 .5-1 1.2s-1.6 5-3.6 9.6c-4.6 10.6-12.1 31.4-14 38.7-.2.5-1.2 4-2.2 7.7-1.1 3.6-1.8 6.9-1.4 7.2.3.3-.1.6-.8.6-.7 0-1.1.3-.7.6.3.3 0 2.6-.8 5-.7 2.4-1.1 4.4-.9 4.4.3 0 0 .8-.5 1.7-.5 1-1.2 3.4-1.5 5.3-.5 3.4-1.9 10-3 15-.3 1.3-.8 4.2-1.1 6.5-.3 2.2-.8 4.7-1 5.5-.4 1.5-1.4 9.1-2 14-.1 1.4-.6 5.4-1 9-1.6 14.1-2.7 34.2-2.7 48 0 10.6 1.1 37.5 1.7 41.5.2 1.6.7 5.9 1 9.5.4 3.6.8 7.6 1.1 9 .3 1.4.7 4.7 1 7.5.3 2.7.8 5.7 1.1 6.5.3.8.7 2.9.8 4.6.2 1.7.5 4 .9 5 .3 1 .8 3.7 1.1 5.9.3 2.2 1 5.3 1.5 7 .9 2.9 1.2 4.1 2.5 11 .3 1.6.8 3.7 1.1 4.5.3.8.8 2.6 1 3.8.7 3.7 9 29.9 11.9 37.7 1.5 3.8 3 8.2 3.5 9.7s1.2 3.3 1.7 4c.4.7.8 1.5.9 1.8 0 .5.4 1.4 5.8 13.5 5.2 11.7 17.5 35.5 22.6 43.5.5.8 2.3 3.7 4 6.5 4.2 6.8 5.4 8.7 6.3 9.9.4.6 2.7 3.9 5.2 7.4 2.5 3.4 4.5 6.6 4.5 7.1s.7 1.5 1.6 2.2c.9.8 2.7 3 4 4.9 1.2 1.9 3.3 4.7 4.6 6.2 1.3 1.5 3.4 4.2 4.8 6 1.4 1.8 3.5 4.3 4.8 5.6 1.2 1.3 2.2 2.5 2.2 2.7 0 .3.8 1.3 1.8 2.3.9 1 4.7 5.2 8.3 9.3 11.8 13.1 35.8 36.4 42.1 40.7 1.2.9 2.8 2.1 3.3 2.7.6.7 3.3 2.9 6 5.1 2.8 2.1 5.2 4.1 5.5 4.4.3.3 3.9 3 8 6s7.7 5.8 7.8 6.2c.2.5 1 .8 1.8.8s1.4.4 1.4 1c0 .5.7 1 1.5 1 .7 0 1.9.8 2.4 1.8.6.9 1.1 1.2 1.1.7 0-.6.3-.5.8.1.9 1.4 20 13.4 21.3 13.4.5 0 .9.4.9 1 0 .5.6 1 1.4 1 .8 0 1.6.3 1.8.7.3.7 10.1 6.2 15.5 8.8 1.3.5 2.3 1.3 2.3 1.7 0 .5.4.8.9.8s7.4 3.1 15.3 6.8c11.6 5.6 29.5 13.3 31.8 13.8.3 0 1.7.6 3.1 1.1 7.8 3.3 34.5 11.7 44.2 13.9.9.2 2.6.6 3.7.9 1.1.3 2.8.7 3.8.9.9.2 3.7.9 6.2 1.5 2.5.7 5.6 1.3 7 1.6 1.4.2 5 .9 8 1.5s7 1.3 8.8 1.6c1.7.2 4.9.6 7 .9 2 .3 6 .8 8.7 1.1 2.8.3 6.6.7 8.5 1 14.8 1.9 60.5 2.6 79 1.1 14.4-1.2 18.2-1.6 22-2.1 1.9-.3 5.7-.8 8.5-1.2 2.7-.3 5.5-1 6.1-1.5.8-.7 1.4-.6 1.9.1.3.6 1.1.8 1.6.4.5-.3 2.2-.8 3.7-1 1.5-.3 5.6-1.2 9.2-2 7.7-1.8 12.8-2.7 15.3-2.8.9 0 1.7-.5 1.7-1s.3-.7.6-.4c.3.4 2 .2 3.7-.3 1.8-.6 3.9-1.2 4.7-1.4 3.9-.8 13.4-3.6 22.5-6.4 5.5-1.8 10.5-3.3 11-3.5.6-.2 2.3-.8 3.8-1.4 1.6-.7 3.3-1.2 3.8-1.2s1.7-.4 2.7-1c2.6-1.5 13.6-5.4 14.5-5.2.4.1.7-.3.7-1 0-.6.2-.9.6-.6.3.3 3.2-.7 6.5-2.3 3.2-1.6 6.2-2.9 6.4-2.9.8 0 25.3-12.4 31.5-15.9 3-1.8 6.3-3.4 7.3-3.7.9-.4 1.7-1 1.7-1.5s.6-.9 1.4-.9c.8 0 2.1-.6 2.8-1.3.7-.7 2-1.6 2.8-2 .8-.4 2.9-1.6 4.5-2.7 1.7-1.1 4-2.5 5.3-3.1 1.2-.7 2.2-1.6 2.2-2.1 0-.4.4-.8 1-.8 1 0 9.4-5.5 11.8-7.7.7-.7 2.6-2 4.2-3 1.7-.9 3-2.1 3-2.5 0-.4.6-.8 1.4-.8.8 0 1.6-.3 1.8-.8.2-.4 2.3-2.3 4.8-4.2 2.5-1.8 6.3-5 8.6-6.9 2.2-2 6.5-5.6 9.5-8.1 5.6-4.7 33.8-32.5 39.9-39.5 3.1-3.6 17.9-21.4 19.8-24 .4-.6 2.8-3.7 5.2-7 2.5-3.3 4.8-6.1 5.3-6.3.4-.2.7-1 .7-1.7s.3-1.5.8-1.7c.4-.2 4.3-5.9 8.8-12.8 11.4-17.7 13.9-21.9 16.5-27.2 1.3-2.7 2.7-4.8 3.1-4.8.4 0 .8-.9.8-1.9 0-1.1.3-2.1.8-2.3.4-.2 2.4-3.9 4.5-8.3 2.2-4.4 4.3-8.7 4.8-9.5.5-.8 1.2-2.2 1.5-3 .3-.8 1.3-3.1 2.2-5 .9-1.9 1.7-3.7 1.7-4 0-.3.8-2.1 1.7-4 2.5-5.5 4-9.9 3.7-10.4-.2-.2.4-1.2 1.3-2.2.9-1.1 1.6-2.3 1.6-2.7 0-.6 3.8-12 6-17.7.3-.8.6-1.8.7-2.3.2-.4.3-.8.5-1 .1-.1.3-.9.5-1.7.2-.8 1.5-5.3 3-10 2.7-8.8 5.4-19 5.9-22.5.2-1.1.4-2 .5-2 .2 0 .4-1.1.7-2.5.3-1.9 1.9-9.5 2.9-14 0-.3.5-2.8 1-5.5.4-2.8 1-5.7 1.2-6.5.2-.8.5-3.5.8-6 .2-2.5.6-5.6.9-7 .6-3.1 1.3-9.9 2.3-21.5 1.5-17.6.8-65.4-1.2-79.8-.2-1.8-.7-5.5-1-8.2-.4-2.8-.9-6.6-1.1-8.5-.5-3.9-4-24.4-4.8-27.5-.2-1.1-1.2-5.3-2.1-9.4-.9-4-1.8-7.8-1.9-8.5-.1-.6-1-3.8-2-7.1-1.8-5.9-2.1-7.1-3.1-11.8-.2-1.2-.9-3.1-1.4-4.2-.5-1.1-2-5.6-3.4-10-3-9.3-7.4-21.3-11.2-30.3-6.5-15.9-22.1-47.3-23.7-48-.5-.2-.8-.8-.8-1.2 0-1.9-18.6-31.7-21.6-34.8-.8-.7-1.4-1.7-1.4-2.1 0-.4-.8-1.7-1.7-2.9-4.6-5.4-5.3-6.3-5.3-7 0-.5-.8-1.7-1.8-2.8-.9-1-4.7-5.5-8.2-10-14-17.4-34.9-39.4-50-52.4-4.1-3.6-7.7-6.7-8-7-.3-.3-2.5-2.1-5-4s-5-3.9-5.7-4.5c-2.4-2.2-7.9-6.2-15.7-11.8-4.4-3.2-8.9-6.4-9.9-7.2-.9-.8-2-1.5-2.3-1.5-.3 0-2.6-1.4-5.2-3.2-2.6-1.8-4.8-3.1-5-3-.1.1-1.2-.7-2.4-1.8-1.3-1.2-3.3-2.3-4.5-2.6-1.3-.4-2.3-.9-2.3-1.3s-2.4-1.9-5.2-3.4c-2.9-1.6-6.7-3.6-8.3-4.6-1.7-1-7.3-3.9-12.5-6.5s-10.3-5.2-11.3-5.7c-3-1.6-19.6-8.8-26.7-11.5-3.6-1.4-8-3.2-9.8-4-1.8-.7-3.7-1.4-4.3-1.4-.6 0-2.5-.7-4.2-1.5-3.3-1.5-24.5-8.1-30.7-9.6-1.9-.4-6.2-1.5-9.5-2.3-6.6-1.8-10-2.6-13-3.1-1.1-.2-3.3-.7-5-1-1.6-.3-4.1-.8-5.5-1-6.3-1.3-7.7-1.5-11.5-2.1-2.2-.3-5.1-.8-6.5-1-1.4-.2-5-.6-8-1-3-.3-6.8-.8-8.5-1.1-4.4-.6-12.2-1.2-19.2-1.5-3.5-.1-6.3-.6-6.3-1.1 0-.4-.8-.3-1.9.2-1 .6-2.1.8-2.4.4-.8-.7-34.7-1-34.7-.3zm44 105.4c11 1.1 15.7 1.6 18.5 2 11.8 1.5 14.1 1.9 14.5 2.5.3.3 2.1.7 4.2.8 2 .1 7.5 1.2 12.3 2.4 4.9 1.2 9.3 2.2 9.9 2.4 5.4 1.1 19.7 5.4 21.7 6.5.9.5 3.6 1.4 6 2 2.4.7 6.2 2.1 8.6 3.2 2.3 1.1 4.8 2 5.5 2.2.7.1 2 .6 2.8 1.1.8.5 2 1 2.5 1.1 2.4.4 37.3 18 41 20.7.5.4 6.6 4.4 13.5 8.9s13 8.7 13.6 9.2c2.4 2.2 5.4 4.6 5.9 4.6s1.2.5 14.5 12.1c11.3 9.8 34 32.9 34 34.5 0 .2.8 1.2 1.8 2.2 4.3 4.6 16.7 20.8 19.7 26 1.1 1.8 2.3 3.2 2.7 3.2.4 0 .8.5.8 1 0 .6 1.6 3.3 3.5 6s3.5 5.2 3.5 5.5c0 .3 1.2 2.4 2.7 4.8 9.2 14.4 23 44.6 29.8 65.2 6.6 19.9 8 24.9 10 35.5.3 1.4.9 4 1.4 5.8.5 1.8 1 3.5 1 3.7-.1.3.2 2.3.6 4.5.4 2.2.8 5 1 6.3.1 1.2.6 4.2.9 6.7 1.9 13.3 2.9 27.8 2.9 44 0 11.7-.9 30.5-1.7 35-.2 1.4-.7 4.7-1 7.5-.3 2.7-.8 6.1-1 7.5-.3 1.4-.7 4.1-1 6-.3 1.9-.8 4.6-1.1 6-.3 1.4-.8 3.8-1 5.5-.3 1.6-.8 3.8-1.1 4.7-.3.9-.7 2.5-.9 3.5-2.2 10.5-9.3 33.2-14.3 45.9-5.4 13.4-16.3 36-22.2 45.9-1.6 2.7-3.3 5.7-3.7 6.5-.4.8-2.9 4.8-5.7 9-2.7 4.1-4.8 7.7-4.7 7.9.2.2-.1.7-.6 1-.5.3-4.2 5.1-8.3 10.6-13.3 17.8-26.7 32.6-45 49.5-7.6 7.1-33.2 27-34.6 27-.4 0-1.7.8-2.8 1.9-3.6 3.2-31.1 19.2-31.1 18.1 0-.2-1.8.8-4 2.1-2.2 1.4-6.5 3.5-9.5 4.8-3 1.3-6.8 2.9-8.5 3.6-9.9 4.4-13.1 5.7-23.7 9.3-6.5 2.3-11.8 3.9-11.8 3.5 0-.3-.7 0-1.5.7-.8.6-1.9.9-2.5.5-.5-.3-1-.2-1 .3s-.6.9-1.2.9c-.7 0-5.1 1-9.8 2.3-4.7 1.2-9.4 2.4-10.5 2.6-1.1.2-3.1.6-4.5.9-1.4.2-4.1.7-6 1-1.9.3-4.2.8-5 1-.8.3-3.1.7-5 .9-1.9.3-5.5.7-8 1-2.5.4-6.1.8-8 1.1-17.2 2.2-60 2.2-71.2 0-1.5-.3-5.1-.7-8-1-2.9-.2-6.4-.6-7.8-.9-2.5-.5-8.7-1.5-12.5-2.1-1.8-.3-9.1-1.9-14-3.2-1.1-.2-3.6-.8-5.5-1.3-5-1.2-21.1-5.9-23.5-6.9-1.1-.5-4.2-1.7-7-2.6-5.4-1.9-8.4-3.1-15.7-6.4-2.6-1.1-5.1-2.1-5.4-2.1-1 0-26-12.7-30.3-15.5-2.3-1.4-4.3-2.5-4.7-2.5-.3 0-4.6-2.7-9.6-6-4.9-3.3-9.4-6-9.9-6s-.9-.4-.9-.8-1.2-1.5-2.7-2.4c-3.1-1.8-3.2-1.9-14.8-10.9-8.6-6.8-11.2-9-18.9-15.9-8.7-7.8-31.6-31.5-31.6-32.7 0-.2-.6-1-1.2-1.7-6.1-6.3-23.8-30.6-23.8-32.6 0-.5-.4-1-.9-1s-1.6-1.5-2.5-3.2c-1-1.8-3.5-6.2-5.7-9.8-5.2-8.5-18.6-35.7-19.4-39.5-.2-.9-2.5-6.8-5.5-14-.5-1.1-1.4-3.8-2.1-6-.7-2.2-1.8-5.8-2.5-8-1.5-4.7-5.1-17.9-5.8-21.5-.3-1.4-.8-3.6-1.1-5-.4-1.4-.9-4.1-1.1-6-.2-1.9-.7-4.2-1-5-.3-.8-.8-2.9-1-4.5-1-7.2-1.4-10.2-1.9-12.5-.4-2.4-1.1-10-2-22-1.4-18-.4-51.4 2-66 .3-1.9.8-5.5 1-7.9.2-2.4.7-5.1 1-6 .2-.9.7-3.4 1-5.6.3-2.2.7-4.9 1-6 .2-1.1 1.1-5.2 2-9 2-8.7 1.9-8.5 4.5-17 1.1-3.9 2.2-7.8 2.5-8.8 3.2-13.2 21.4-55.9 24.4-57.2.8-.3 1.7-.2 2 .2.3.5 3.3 3.1 6.6 5.8 3.3 2.8 6.2 5.2 6.5 5.5 2.2 2.2 13.1 10 13.9 10 .6 0 1.1.4 1.1.8s1.5 1.6 3.3 2.7c1.7 1 3.4 2.1 3.7 2.5.3.3 5.5 3.6 11.5 7.3 6.1 3.7 11.7 7.2 12.5 7.7 1.8 1.1 31.7 15.9 34.5 17 1.1.5 4.1 1.8 6.8 2.9 2.6 1.1 4.7 1.7 4.8 1.3 0-.4.2-1.4.4-2.2.2-.8.8-4 1.4-7 .6-3 1.3-6.6 1.6-8 .3-1.4.8-4.3 1.1-6.5.3-2.2.8-4.7 1.1-5.5.3-.8.7-2.9.9-4.5.2-1.7 1.5-8.9 2.9-16 1.4-7.2 2.7-14.4 2.9-16 .2-1.7.9-4.8 1.4-7 .6-2.2 1.3-5.8 1.5-8 .3-2.2.9-5.8 1.5-8s1.3-5.8 1.7-7.9c.3-2.1.8-4.9 1.1-6.1.5-1.9-.3-2.6-4.8-4.9-2.9-1.4-7.1-3.8-9.3-5.1-2.2-1.3-5.6-3.4-7.5-4.5-5-2.9-7.4-4.4-8-5-.3-.3-3.4-2.6-7-5.2-5.7-4-14.6-11.2-22.7-18.3-1.3-1.1-2.3-2.5-2.3-3.1 0-1 4.9-5.6 14.4-13.5 1.6-1.3 3.7-3.1 4.6-3.9 3.1-3 12.9-10 13.9-10 .5 0 1.1-.4 1.3-.9.3-.9 14.5-10.8 19.3-13.5 1.7-.9 4.8-2.8 7-4.2 2.2-1.4 4.8-2.7 5.8-3.1.9-.3 1.7-1 1.7-1.6 0-.6.3-.8.6-.4.3.3 2.7-.7 5.2-2.1 2.6-1.5 9.2-4.8 14.7-7.3 15.7-7.3 15.1-7.1 31-12.9 1.1-.4 2.5-.9 3-1 .6-.1 2.1-.7 3.5-1.2 2.9-1.2 17.5-5.6 20.5-6.3 1.1-.2 4-.9 6.5-1.6 2.5-.6 5.2-1.2 6-1.4.8-.2 3.5-.8 6-1.3 2.5-.6 6.1-1.3 8-1.6 3.7-.5 8.2-1.3 14-2.2 4-.7 8.1-1.1 20-2 4.7-.3 8.6-.8 8.8-.9.4-.4 37.3.4 42.2.9z"/></svg>