<?xml version="1.0" standalone="no"?>
<!DOCTYPE svg PUBLIC "-//W3C//DTD SVG 20010904//EN"
 "http://www.w3.org/TR/2001/REC-SVG-20010904/DTD/svg10.dtd">
<svg version="1.0" xmlns="http://www.w3.org/2000/svg"
 width="1622.000000pt" height="1622.000000pt" viewBox="0 0 1622.000000 1622.000000"
 preserveAspectRatio="xMidYMid meet">
<metadata>
Created by potrace 1.11, written by Peter Selinger 2001-2013
</metadata>
<g transform="translate(0.000000,1622.000000) scale(0.100000,-0.100000)"
fill="#000000" stroke="none">
<path d="M4829 16217 c-4 -13 -10 -53 -13 -102 -3 -33 -8 -94 -11 -136 -13
-160 -13 -309 -1 -302 8 5 8 3 0 -8 -12 -14 -12 -136 0 -324 7 -112 20 -239
32 -310 3 -16 7 -46 9 -65 5 -46 31 -175 56 -275 11 -44 22 -89 25 -101 11
-56 97 -301 139 -399 78 -179 234 -463 268 -486 5 -3 8 -9 7 -13 -1 -7 160
-224 190 -257 8 -9 47 -51 85 -94 99 -111 244 -253 371 -362 113 -97 152 -131
172 -150 12 -13 25 -23 28 -23 6 0 263 -219 388 -330 173 -154 417 -400 397
-400 -3 0 -1 -4 5 -8 17 -12 68 -93 98 -157 36 -76 64 -163 72 -223 3 -26 8
-56 10 -67 9 -41 3 -185 -10 -267 -24 -153 -145 -352 -282 -468 -71 -59 -190
-130 -220 -130 -8 0 -14 -5 -14 -12 0 -6 -3 -9 -6 -5 -3 3 -26 -3 -50 -13 -24
-11 -44 -18 -44 -16 0 2 -26 -3 -57 -10 -59 -13 -244 -13 -313 0 -155 31 -321
121 -438 236 -63 63 -174 227 -172 255 0 3 -7 19 -15 35 -12 24 -38 41 -111
75 -53 25 -102 45 -110 45 -8 0 -14 5 -14 10 0 6 -5 10 -10 10 -6 0 -41 14
-78 31 -37 18 -71 33 -77 35 -5 1 -46 19 -90 39 -44 20 -100 46 -125 57 -25
11 -70 32 -100 46 -30 14 -57 27 -60 27 -3 1 -21 8 -40 17 -19 9 -61 27 -92
42 l-57 25 -48 -51 c-26 -28 -55 -59 -63 -68 -12 -13 -54 -65 -92 -115 -4 -5
-23 -29 -40 -51 -18 -23 -50 -66 -70 -95 -21 -30 -52 -74 -70 -99 -18 -25 -33
-47 -33 -50 0 -3 -17 -31 -38 -63 -20 -31 -37 -62 -37 -67 0 -6 -3 -10 -7 -10
-5 0 -13 -10 -19 -23 -6 -12 -40 -78 -76 -147 -35 -69 -88 -181 -117 -250 -29
-69 -56 -134 -61 -145 -17 -39 -97 -289 -106 -330 -2 -11 -7 -33 -10 -49 -2
-16 -7 -32 -9 -36 -2 -3 -6 -17 -9 -31 -3 -13 -7 -35 -10 -49 -3 -14 -9 -41
-12 -60 -4 -19 -8 -44 -11 -55 -2 -11 -6 -36 -8 -55 -3 -19 -8 -51 -11 -70
-23 -140 -29 -247 -29 -490 1 -129 4 -275 9 -325 4 -49 9 -102 9 -117 1 -16 4
-28 7 -28 3 0 6 -12 6 -27 3 -55 19 -168 29 -203 2 -8 7 -31 10 -50 16 -101
94 -379 135 -485 4 -11 20 -54 36 -95 15 -41 34 -91 42 -110 l14 -34 32 36
c18 20 50 59 71 87 22 28 43 51 47 51 4 0 8 4 8 9 0 5 12 23 28 39 15 15 77
82 137 147 61 65 115 123 121 129 124 120 238 225 335 308 27 23 29 42 15 98
-4 14 -9 41 -12 60 -2 19 -6 42 -9 50 -2 8 -7 38 -11 65 -3 28 -8 58 -10 68
-12 64 -24 402 -15 421 2 5 6 46 8 90 3 71 8 121 13 121 1 0 3 16 4 35 2 31
12 93 21 140 2 8 13 53 25 100 12 47 23 92 24 100 2 15 32 111 43 140 4 8 7
17 8 20 7 19 20 54 43 110 15 36 27 67 27 70 1 12 49 100 55 100 4 0 16 -11
28 -25 12 -14 20 -25 18 -25 -3 0 8 -13 22 -28 15 -16 48 -51 73 -78 83 -88
185 -175 288 -244 90 -60 312 -173 366 -186 6 -1 44 -13 85 -27 41 -14 86 -28
100 -31 95 -21 121 -26 165 -32 28 -4 55 -7 60 -8 6 -1 15 -4 20 -8 13 -8 429
-3 475 6 19 4 49 8 65 10 45 6 151 32 230 55 39 12 77 23 85 26 8 2 44 16 79
30 371 153 678 416 887 761 74 122 186 372 199 444 1 3 4 14 8 25 3 11 8 31
11 45 3 14 10 43 16 65 5 22 13 56 16 75 3 19 7 46 10 60 26 146 23 435 -6
564 -6 27 -8 51 -6 54 3 2 1 12 -4 22 -5 9 -12 32 -15 50 -19 107 -139 394
-225 535 -16 28 -33 57 -37 65 -4 8 -12 20 -17 27 -28 32 -36 43 -36 49 0 9
-98 137 -187 244 -49 59 -315 324 -376 375 -27 22 -63 53 -80 68 -18 16 -49
43 -71 60 -21 18 -73 61 -115 96 -42 35 -93 77 -114 95 -21 17 -49 40 -61 51
-13 11 -45 38 -71 60 -189 161 -409 385 -494 503 -47 64 -48 69 -19 50 43 -28
170 -102 213 -123 22 -11 42 -22 45 -25 9 -9 209 -111 301 -154 30 -14 59 -29
63 -33 3 -4 12 -8 19 -9 7 -1 47 -18 89 -38 43 -21 80 -37 83 -37 3 1 27 -10
53 -23 43 -22 262 -113 287 -120 6 -2 21 -8 35 -13 36 -16 156 -62 220 -85 30
-12 64 -25 75 -29 20 -9 184 -69 260 -96 22 -8 54 -20 70 -27 17 -8 68 -28
115 -46 79 -30 326 -133 360 -150 8 -5 74 -37 145 -71 72 -35 132 -66 135 -69
3 -3 21 -13 40 -22 44 -22 133 -71 140 -78 3 -3 34 -23 70 -44 36 -22 67 -43
68 -48 2 -4 8 -8 12 -8 5 0 29 -14 52 -30 24 -17 60 -42 81 -56 20 -13 45 -31
55 -38 9 -8 48 -38 86 -66 37 -29 76 -60 86 -69 9 -9 41 -36 70 -61 137 -116
350 -328 419 -419 14 -19 41 -51 58 -70 18 -20 33 -39 33 -43 0 -4 6 -13 13
-20 7 -7 28 -35 47 -63 19 -27 37 -52 41 -55 3 -3 16 -23 29 -45 13 -22 27
-42 30 -45 3 -3 14 -21 23 -41 9 -20 23 -42 32 -49 8 -7 15 -16 15 -21 0 -4
13 -31 30 -59 16 -27 27 -50 25 -50 -3 0 6 -18 20 -40 14 -22 25 -46 25 -53 0
-7 4 -17 9 -22 20 -21 140 -337 156 -411 2 -10 11 -44 19 -76 8 -31 17 -68 20
-82 3 -14 7 -34 10 -44 5 -15 9 -37 21 -97 5 -26 15 -101 20 -144 2 -19 6 -48
9 -65 30 -189 19 -651 -19 -826 -7 -32 -12 -59 -19 -101 -3 -19 -8 -45 -11
-59 -3 -14 -8 -36 -11 -50 -3 -14 -8 -34 -11 -45 -8 -23 -10 -31 -17 -63 -3
-13 -8 -32 -11 -42 -5 -15 15 -29 117 -80 68 -34 137 -69 153 -79 17 -10 50
-29 75 -43 91 -51 285 -172 288 -180 2 -4 9 -8 16 -8 7 0 21 -8 32 -19 11 -10
31 -24 44 -31 13 -7 29 -17 34 -22 28 -23 150 -107 153 -104 3 3 53 143 58
161 1 6 5 17 8 25 8 20 30 93 33 105 1 6 12 48 25 95 12 47 23 92 24 100 1 8
5 22 9 30 3 8 8 31 10 50 3 19 5 35 6 35 2 0 7 26 15 75 3 25 10 62 16 82 5
20 9 40 8 45 -1 4 -1 10 1 13 3 10 10 66 15 120 2 30 5 55 6 55 1 0 6 50 13
149 3 38 7 71 10 73 3 3 1 15 -4 28 -5 13 -6 26 -3 29 10 9 10 279 1 299 -6
11 -5 17 2 17 6 0 8 5 4 12 -4 6 -9 44 -10 84 -2 40 -6 92 -8 116 -3 23 -8 68
-11 98 -3 30 -15 109 -26 175 -11 66 -22 131 -25 145 -4 23 -10 53 -33 148
-25 104 -74 273 -101 347 -10 28 -31 84 -46 125 -14 41 -37 99 -50 128 -13 29
-24 59 -24 67 0 8 -4 15 -10 15 -5 0 -10 7 -10 15 0 8 -9 30 -20 50 -11 19
-20 37 -20 40 0 3 -21 47 -47 98 -26 50 -54 106 -62 122 -8 17 -18 32 -21 35
-8 8 -74 119 -107 183 -8 15 -19 27 -24 27 -5 0 -9 4 -9 9 0 9 -107 170 -120
181 -3 3 -17 21 -30 40 -13 19 -30 42 -37 50 -7 8 -40 49 -73 90 -33 41 -78
94 -100 118 -22 23 -38 42 -37 42 8 0 -255 261 -332 330 -47 41 -94 84 -106
95 -12 11 -37 32 -56 46 -19 15 -44 35 -56 46 -12 11 -34 28 -48 39 -14 10
-67 49 -116 87 -49 37 -93 67 -98 67 -5 0 -11 4 -13 8 -4 12 -95 72 -107 72
-6 0 -11 4 -11 8 0 5 -16 17 -35 28 -19 10 -35 22 -35 26 0 5 -5 8 -11 8 -7 0
-42 20 -80 45 -38 25 -71 45 -74 45 -3 0 -22 11 -43 23 -90 57 -435 236 -552
286 -59 26 -140 62 -205 91 -22 10 -67 28 -100 41 -33 12 -73 28 -90 35 -38
16 -167 65 -180 68 -5 2 -21 7 -35 13 -14 5 -74 27 -135 48 -60 21 -114 42
-119 46 -6 5 -15 9 -22 9 -6 0 -29 8 -50 17 -22 9 -47 18 -56 20 -9 1 -42 14
-72 27 -31 14 -56 22 -56 19 0 -3 -6 0 -13 6 -8 6 -33 17 -56 25 -41 15 -58
22 -153 65 -26 11 -49 21 -52 21 -2 0 -34 14 -72 32 -38 17 -71 32 -74 33 -3
0 -66 30 -140 66 -74 36 -137 65 -140 65 -3 -1 -19 9 -37 22 -17 12 -33 22
-36 22 -2 0 -53 28 -113 61 -101 57 -135 78 -299 184 -64 42 -270 197 -320
240 -225 198 -403 439 -431 585 -3 13 -7 26 -8 28 -7 6 -80 18 -176 27 -54 5
-124 13 -165 19 -16 2 -52 7 -80 11 -100 12 -111 14 -157 20 -53 8 -101 13
-168 19 -25 2 -47 5 -50 6 -3 1 -8 2 -13 1 -4 -1 -38 3 -75 9 -96 13 -152 20
-153 17z"/>
<path d="M8040 8840 c0 -3 -37 -6 -83 -6 -72 -2 -154 -8 -237 -19 -14 -2 -46
-6 -73 -9 -26 -2 -60 -7 -75 -10 -15 -3 -43 -8 -62 -10 -38 -6 -78 -13 -125
-23 -16 -3 -37 -8 -45 -9 -8 -1 -26 -5 -40 -8 -14 -3 -34 -8 -45 -10 -11 -2
-38 -9 -60 -14 -22 -6 -51 -13 -65 -16 -14 -3 -41 -10 -60 -16 -19 -6 -44 -13
-55 -15 -11 -3 -54 -16 -95 -29 -41 -14 -78 -22 -82 -20 -4 3 -8 0 -8 -5 0 -6
-6 -11 -13 -11 -7 0 -67 -21 -132 -46 -66 -25 -140 -53 -165 -62 -25 -10 -51
-23 -58 -29 -7 -7 -19 -13 -27 -13 -13 0 -300 -143 -390 -195 -27 -16 -59 -34
-70 -40 -31 -17 -88 -53 -110 -69 -11 -8 -24 -15 -29 -15 -5 1 -12 -3 -15 -8
-3 -4 -49 -37 -101 -72 -113 -76 -278 -202 -375 -287 -38 -33 -83 -71 -99 -85
-53 -45 -261 -254 -336 -338 -41 -47 -83 -93 -92 -103 -10 -10 -18 -22 -18
-28 0 -5 -3 -10 -8 -10 -4 0 -46 -51 -92 -112 -47 -62 -87 -115 -90 -118 -11
-10 -65 -96 -72 -112 -4 -10 -12 -18 -18 -18 -5 0 -10 -4 -10 -9 0 -6 -13 -29
-29 -53 -81 -120 -291 -512 -291 -543 0 -8 -4 -15 -10 -15 -5 0 -10 -5 -10
-12 0 -7 -16 -50 -36 -96 -46 -106 -121 -314 -140 -387 -2 -5 -12 -40 -22 -77
-11 -36 -18 -69 -14 -72 3 -3 -1 -6 -8 -6 -7 0 -11 -3 -7 -6 3 -3 0 -26 -8
-50 -7 -24 -11 -44 -9 -44 3 0 0 -8 -5 -17 -5 -10 -12 -34 -15 -53 -5 -34 -19
-100 -30 -150 -3 -13 -8 -42 -11 -65 -3 -22 -8 -47 -10 -55 -4 -15 -14 -91
-20 -140 -1 -14 -6 -54 -10 -90 -16 -141 -27 -342 -27 -480 0 -106 11 -375 17
-415 2 -16 7 -59 10 -95 4 -36 8 -76 11 -90 3 -14 7 -47 10 -75 3 -27 8 -57
11 -65 3 -8 7 -29 8 -46 2 -17 5 -40 9 -50 3 -10 8 -37 11 -59 3 -22 10 -53
15 -70 9 -29 12 -41 25 -110 3 -16 8 -37 11 -45 3 -8 8 -26 10 -38 7 -37 90
-299 119 -377 15 -38 30 -82 35 -97 5 -15 12 -33 17 -40 4 -7 8 -15 9 -18 0
-5 4 -14 58 -135 52 -117 175 -355 226 -435 5 -8 23 -37 40 -65 42 -68 54 -87
63 -99 4 -6 27 -39 52 -74 25 -34 45 -66 45 -71 0 -5 7 -15 16 -22 9 -8 27
-30 40 -49 12 -19 33 -47 46 -62 13 -15 34 -42 48 -60 14 -18 35 -43 48 -56
12 -13 22 -25 22 -27 0 -3 8 -13 18 -23 9 -10 47 -52 83 -93 118 -131 358
-364 421 -407 12 -9 28 -21 33 -27 6 -7 33 -29 60 -51 28 -21 52 -41 55 -44 3
-3 39 -30 80 -60 41 -30 77 -58 78 -62 2 -5 10 -8 18 -8 8 0 14 -4 14 -10 0
-5 7 -10 15 -10 7 0 19 -8 24 -18 6 -9 11 -12 11 -7 0 6 3 5 8 -1 9 -14 200
-134 213 -134 5 0 9 -4 9 -10 0 -5 6 -10 14 -10 8 0 16 -3 18 -7 3 -7 101 -62
155 -88 13 -5 23 -13 23 -17 0 -5 4 -8 9 -8 5 0 74 -31 153 -68 116 -56 295
-133 318 -138 3 0 17 -6 31 -11 78 -33 345 -117 442 -139 9 -2 26 -6 37 -9 11
-3 28 -7 38 -9 9 -2 37 -9 62 -15 25 -7 56 -13 70 -16 14 -2 50 -9 80 -15 30
-6 70 -13 88 -16 17 -2 49 -6 70 -9 20 -3 60 -8 87 -11 28 -3 66 -7 85 -10
148 -19 605 -26 790 -11 144 12 182 16 220 21 19 3 57 8 85 12 27 3 55 10 61
15 8 7 14 6 19 -1 3 -6 11 -8 16 -4 5 3 22 8 37 10 15 3 56 12 92 20 77 18
128 27 153 28 9 0 17 5 17 10 0 5 3 7 6 4 3 -4 20 -2 37 3 18 6 39 12 47 14
39 8 134 36 225 64 55 18 105 33 110 35 6 2 23 8 38 14 16 7 33 12 38 12 5 0
17 4 27 10 26 15 136 54 145 52 4 -1 7 3 7 10 0 6 2 9 6 6 3 -3 32 7 65 23 32
16 62 29 64 29 8 0 253 124 315 159 30 18 63 34 73 37 9 4 17 10 17 15 0 5 6
9 14 9 8 0 21 6 28 13 7 7 20 16 28 20 8 4 29 16 45 27 17 11 40 25 53 31 12
7 22 16 22 21 0 4 4 8 10 8 10 0 94 55 118 77 7 7 26 20 42 30 17 9 30 21 30
25 0 4 6 8 14 8 8 0 16 3 18 8 2 4 23 23 48 42 25 18 63 50 86 69 22 20 65 56
95 81 56 47 338 325 399 395 31 36 179 214 198 240 4 6 28 37 52 70 25 33 48
61 53 63 4 2 7 10 7 17 0 7 3 15 8 17 4 2 43 59 88 128 114 177 139 219 165
272 13 27 27 48 31 48 4 0 8 9 8 19 0 11 3 21 8 23 4 2 24 39 45 83 22 44 43
87 48 95 5 8 12 22 15 30 3 8 13 31 22 50 9 19 17 37 17 40 0 3 8 21 17 40 25
55 40 99 37 104 -2 2 4 12 13 22 9 11 16 23 16 27 0 6 38 120 60 177 3 8 6 18
7 23 2 4 3 8 5 10 1 1 3 9 5 17 2 8 15 53 30 100 27 88 54 190 59 225 2 11 4
20 5 20 2 0 4 11 7 25 3 19 19 95 29 140 0 3 5 28 10 55 4 28 10 57 12 65 2 8
5 35 8 60 2 25 6 56 9 70 6 31 13 99 23 215 15 176 8 654 -12 798 -2 18 -7 55
-10 82 -4 28 -9 66 -11 85 -5 39 -40 244 -48 275 -2 11 -12 53 -21 94 -9 40
-18 78 -19 85 -1 6 -10 38 -20 71 -18 59 -21 71 -31 118 -2 12 -9 31 -14 42
-5 11 -20 56 -34 100 -30 93 -74 213 -112 303 -65 159 -221 473 -237 480 -5 2
-8 8 -8 12 0 19 -186 317 -216 348 -8 7 -14 17 -14 21 0 4 -8 17 -17 29 -46
54 -53 63 -53 70 0 5 -8 17 -18 28 -9 10 -47 55 -82 100 -140 174 -349 394
-500 524 -41 36 -77 67 -80 70 -3 3 -25 21 -50 40 -25 19 -50 39 -57 45 -24
22 -79 62 -157 118 -44 32 -89 64 -99 72 -9 8 -20 15 -23 15 -3 0 -26 14 -52
32 -26 18 -48 31 -50 30 -1 -1 -12 7 -24 18 -13 12 -33 23 -45 26 -13 4 -23 9
-23 13 0 4 -24 19 -52 34 -29 16 -67 36 -83 46 -17 10 -73 39 -125 65 -52 26
-103 52 -113 57 -30 16 -196 88 -267 115 -36 14 -80 32 -98 40 -18 7 -37 14
-43 14 -6 0 -25 7 -42 15 -33 15 -245 81 -307 96 -19 4 -62 15 -95 23 -66 18
-100 26 -130 31 -11 2 -33 7 -50 10 -16 3 -41 8 -55 10 -63 13 -77 15 -115 21
-22 3 -51 8 -65 10 -14 2 -50 6 -80 10 -30 3 -68 8 -85 11 -44 6 -122 12 -192
15 -35 1 -63 6 -63 11 0 4 -8 3 -19 -2 -10 -6 -21 -8 -24 -4 -8 7 -347 10
-347 3z m440 -1054 c110 -11 157 -16 185 -20 118 -15 141 -19 145 -25 3 -3 21
-7 42 -8 20 -1 75 -12 123 -24 49 -12 93 -22 99 -24 54 -11 197 -54 217 -65 9
-5 36 -14 60 -20 24 -7 62 -21 86 -32 23 -11 48 -20 55 -22 7 -1 20 -6 28 -11
8 -5 20 -10 25 -11 24 -4 373 -180 410 -207 5 -4 66 -44 135 -89 69 -45 130
-87 136 -92 24 -22 54 -46 59 -46 5 0 12 -5 145 -121 113 -98 340 -329 340
-345 0 -2 8 -12 18 -22 43 -46 167 -208 197 -260 11 -18 23 -32 27 -32 4 0 8
-5 8 -10 0 -6 16 -33 35 -60 19 -27 35 -52 35 -55 0 -3 12 -24 27 -48 92 -144
230 -446 298 -652 66 -199 80 -249 100 -355 3 -14 9 -40 14 -58 5 -18 10 -35
10 -37 -1 -3 2 -23 6 -45 4 -22 8 -50 10 -63 1 -12 6 -42 9 -67 19 -133 29
-278 29 -440 0 -117 -9 -305 -17 -350 -2 -14 -7 -47 -10 -75 -3 -27 -8 -61
-10 -75 -3 -14 -7 -41 -10 -60 -3 -19 -8 -46 -11 -60 -3 -14 -8 -38 -10 -55
-3 -16 -8 -38 -11 -47 -3 -9 -7 -25 -9 -35 -22 -105 -93 -332 -143 -459 -54
-134 -163 -360 -222 -459 -16 -27 -33 -57 -37 -65 -4 -8 -29 -48 -57 -90 -27
-41 -48 -77 -47 -79 2 -2 -1 -7 -6 -10 -5 -3 -42 -51 -83 -106 -133 -178 -267
-326 -450 -495 -76 -71 -332 -270 -346 -270 -4 0 -17 -8 -28 -19 -36 -32 -311
-192 -311 -181 0 2 -18 -8 -40 -21 -22 -14 -65 -35 -95 -48 -30 -13 -68 -29
-85 -36 -99 -44 -131 -57 -237 -93 -65 -23 -118 -39 -118 -35 0 3 -7 0 -15 -7
-8 -6 -19 -9 -25 -5 -5 3 -10 2 -10 -3 0 -5 -6 -9 -12 -9 -7 0 -51 -10 -98
-23 -47 -12 -94 -24 -105 -26 -11 -2 -31 -6 -45 -9 -14 -2 -41 -7 -60 -10 -19
-3 -42 -8 -50 -10 -8 -3 -31 -7 -50 -9 -19 -3 -55 -7 -80 -10 -25 -4 -61 -8
-80 -11 -172 -22 -600 -22 -712 0 -15 3 -51 7 -80 10 -29 2 -64 6 -78 9 -25 5
-87 15 -125 21 -18 3 -91 19 -140 32 -11 2 -36 8 -55 13 -50 12 -211 59 -235
69 -11 5 -42 17 -70 26 -54 19 -84 31 -157 64 -26 11 -51 21 -54 21 -10 0
-260 127 -303 155 -23 14 -43 25 -47 25 -3 0 -46 27 -96 60 -49 33 -94 60 -99
60 -5 0 -9 4 -9 8 0 4 -12 15 -27 24 -31 18 -32 19 -148 109 -86 68 -112 90
-189 159 -87 78 -316 315 -316 327 0 2 -6 10 -12 17 -61 63 -238 306 -238 326
0 5 -4 10 -9 10 -5 0 -16 15 -25 32 -10 18 -35 62 -57 98 -52 85 -186 357
-194 395 -2 9 -25 68 -55 140 -5 11 -14 38 -21 60 -7 22 -18 58 -25 80 -15 47
-51 179 -58 215 -3 14 -8 36 -11 50 -4 14 -9 41 -11 60 -2 19 -7 42 -10 50 -3
8 -8 29 -10 45 -10 72 -14 102 -19 125 -4 24 -11 100 -20 220 -14 180 -4 514
20 660 3 19 8 55 10 79 2 24 7 51 10 60 2 9 7 34 10 56 3 22 7 49 10 60 2 11
11 52 20 90 20 87 19 85 45 170 11 39 22 78 25 88 32 132 214 559 244 572 8 3
17 2 20 -2 3 -5 33 -31 66 -58 33 -28 62 -52 65 -55 22 -22 131 -100 139 -100
6 0 11 -4 11 -8 0 -4 15 -16 33 -27 17 -10 34 -21 37 -25 3 -3 55 -36 115 -73
61 -37 117 -72 125 -77 18 -11 317 -159 345 -170 11 -5 41 -18 68 -29 26 -11
47 -17 48 -13 0 4 2 14 4 22 2 8 8 40 14 70 6 30 13 66 16 80 3 14 8 43 11 65
3 22 8 47 11 55 3 8 7 29 9 45 2 17 15 89 29 160 14 72 27 144 29 160 2 17 9
48 14 70 6 22 13 58 15 80 3 22 9 58 15 80 6 22 13 58 17 79 3 21 8 49 11 61
5 19 -3 26 -48 49 -29 14 -71 38 -93 51 -22 13 -56 34 -75 45 -50 29 -74 44
-80 50 -3 3 -34 26 -70 52 -57 40 -146 112 -227 183 -13 11 -23 25 -23 31 0
10 49 56 144 135 16 13 37 31 46 39 31 30 129 100 139 100 5 0 11 4 13 9 3 9
145 108 193 135 17 9 48 28 70 42 22 14 48 27 58 31 9 3 17 10 17 16 0 6 3 8
6 4 3 -3 27 7 52 21 26 15 92 48 147 73 157 73 151 71 310 129 11 4 25 9 30
10 6 1 21 7 35 12 29 12 175 56 205 63 11 2 40 9 65 16 25 6 52 12 60 14 8 2
35 8 60 13 25 6 61 13 80 16 37 5 82 13 140 22 40 7 81 11 200 20 47 3 86 8
88 9 4 4 373 -4 422 -9z"/>
</g>
</svg>
