<?xml version="1.0" encoding="UTF-8" standalone="no"?><!DOCTYPE svg PUBLIC "-//W3C//DTD SVG 1.1//EN" "http://www.w3.org/Graphics/SVG/1.1/DTD/svg11.dtd"><svg width="100%" height="100%" viewBox="0 0 273 118" version="1.1" xmlns="http://www.w3.org/2000/svg" xmlns:xlink="http://www.w3.org/1999/xlink" xml:space="preserve" xmlns:serif="http://www.serif.com/" style="fill-rule:evenodd;clip-rule:evenodd;stroke-linejoin:round;stroke-miterlimit:1.41421;"><path id="_404" d="M63.315,117.301c1.621,0 2.432,-0.729 2.432,-2.188l0,-22.534l18.075,0c1.405,0 2.107,-0.81 2.107,-2.431c0.016,-0.1 0.024,-0.202 0.024,-0.303c0,-1.042 -0.857,-1.9 -1.9,-1.9c-0.077,0 -0.154,0.005 -0.231,0.014l-18.075,0l0,-85.756c0.075,-1.034 -0.673,-1.961 -1.7,-2.107l0.081,-0.081l-4.053,0c-0.812,-0.031 -1.572,0.413 -1.945,1.135l-57.873,86.809c-0.163,0.327 -0.246,0.688 -0.244,1.054l0,1.3c0,1.513 0.703,2.269 2.108,2.269l59.089,0l0,22.534c-0.016,0.1 -0.024,0.201 -0.024,0.302c0,1.042 0.858,1.9 1.9,1.9c0.077,0 0.154,-0.005 0.231,-0.014l-0.002,-0.003Zm-57.792,-29.342l55.685,-83.324l0,83.324l-55.685,0Zm129.646,29.342c20.722,-0.077 37.738,-17.13 37.771,-37.852l0,-41.662c0,-20.743 -17.069,-37.812 -37.812,-37.812c-20.743,0 -37.812,17.069 -37.812,37.812l0,41.662c0.033,20.753 17.1,37.82 37.853,37.852Zm0,-112.18c18.205,-0.012 33.2,14.947 33.232,33.152l0,40.608c0,18.209 -14.983,33.192 -33.192,33.192c-18.209,0 -33.192,-14.983 -33.192,-33.192l0,-40.608c0.034,-18.173 14.979,-33.116 33.152,-33.148l0,-0.004Zm114.888,112.18c1.63,0 2.44,-0.729 2.44,-2.188l0,-22.534l18.07,0c1.41,0 2.11,-0.81 2.11,-2.431c0.016,-0.1 0.024,-0.202 0.024,-0.304c0,-1.042 -0.857,-1.9 -1.9,-1.9c-0.078,0 -0.156,0.005 -0.234,0.015l-18.07,0l0,-85.756c0.074,-1.037 -0.68,-1.966 -1.71,-2.107l0.09,-0.081l-4.06,0c-0.81,-0.029 -1.568,0.415 -1.94,1.135l-57.88,86.809c-0.161,0.328 -0.243,0.689 -0.24,1.054l0,1.3c0,1.513 0.7,2.269 2.11,2.269l59.09,0l0,22.534c-0.016,0.1 -0.024,0.2 -0.024,0.301c0,1.043 0.858,1.9 1.9,1.9c0.075,0 0.15,-0.004 0.224,-0.013l0,-0.003Zm-57.79,-29.342l55.69,-83.324l0,83.324l-55.69,0Z" style="fill:#353333;"/><path d="M125.38,50.549c0.16,-0.15 0.298,-0.322 0.406,-0.512c0.054,-0.072 0.104,-0.146 0.149,-0.224c0.28,-0.581 0.28,-1.26 0,-1.841c-0.044,-0.077 -0.094,-0.153 -0.149,-0.224c-0.108,-0.19 -0.246,-0.363 -0.406,-0.514c-0.03,-0.025 -0.041,-0.064 -0.072,-0.089l-11.171,-8.936c-0.963,-0.77 -2.37,-0.614 -3.14,0.349c-0.772,0.963 -0.615,2.37 0.348,3.14l6.197,4.961l-7.035,0c-1.234,0 -2.234,1 -2.234,2.234c0,1.234 1,2.234 2.234,2.234l7.035,0l-6.197,4.958c-0.963,0.77 -1.12,2.177 -0.348,3.141c0.77,0.963 2.177,1.119 3.14,0.347l11.171,-8.936c0.031,-0.024 0.042,-0.062 0.072,-0.088Z" style="fill:#353333;fill-rule:nonzero;"/><path d="M159.657,46.659l-7.035,0l6.197,-4.958c0.963,-0.771 1.119,-2.178 0.348,-3.141c-0.77,-0.963 -2.177,-1.119 -3.141,-0.348l-11.17,8.936c-0.032,0.024 -0.043,0.063 -0.072,0.089c-0.16,0.149 -0.298,0.322 -0.406,0.511c-0.054,0.072 -0.104,0.147 -0.149,0.224c-0.281,0.581 -0.281,1.26 0,1.841c0.045,0.078 0.095,0.152 0.149,0.224c0.108,0.19 0.246,0.362 0.406,0.512c0.029,0.026 0.04,0.064 0.072,0.088l11.17,8.936c0.964,0.772 2.371,0.616 3.141,-0.347c0.771,-0.964 0.615,-2.371 -0.348,-3.141l-6.197,-4.958l7.035,0c1.234,0 2.234,-1 2.234,-2.234c0,-1.234 -1,-2.234 -2.234,-2.234Z" style="fill:#353333;fill-rule:nonzero;"/><path d="M135.082,66.766c-8.201,-0.024 -15.588,4.955 -18.644,12.566c-0.453,1.141 0.102,2.435 1.239,2.896c1.139,0.46 2.435,-0.085 2.903,-1.22c2.388,-5.913 8.126,-9.784 14.502,-9.784c6.376,0 12.114,3.871 14.502,9.784c0.295,0.745 0.968,1.275 1.762,1.388c0.793,0.113 1.587,-0.207 2.079,-0.842c0.491,-0.632 0.606,-1.481 0.301,-2.222c-3.056,-7.611 -10.443,-12.59 -18.644,-12.566Z" style="fill:#353333;fill-rule:nonzero;"/></svg>