<?xml version="1.0" encoding="UTF-8" standalone="no"?><!DOCTYPE svg PUBLIC "-//W3C//DTD SVG 1.1//EN" "http://www.w3.org/Graphics/SVG/1.1/DTD/svg11.dtd"><svg width="100%" height="100%" viewBox="0 0 512 512" version="1.1" xmlns="http://www.w3.org/2000/svg" xmlns:xlink="http://www.w3.org/1999/xlink" xml:space="preserve" xmlns:serif="http://www.serif.com/" style="fill-rule:evenodd;clip-rule:evenodd;stroke-linejoin:round;stroke-miterlimit:1.41421;"><path d="M148,148c0,-59.552 48.449,-108 108,-108c59.551,0 108,48.448 108,108c0,59.552 -48.449,108 -108,108c-59.551,0 -108,-48.448 -108,-108Zm289.02,182.98c-27.883,-27.882 -61.071,-48.523 -97.281,-61.018c38.782,-26.711 64.261,-71.414 64.261,-121.962c0,-81.607 -66.393,-148 -148,-148c-81.607,0 -148,66.393 -148,148c0,50.548 25.479,95.251 64.262,121.962c-36.21,12.495 -69.398,33.136 -97.281,61.018c-48.352,48.353 -74.981,112.64 -74.981,181.02l40,0c0,-119.103 96.897,-216 216,-216c119.103,0 216,96.897 216,216l40,0c0,-68.38 -26.629,-132.667 -74.98,-181.02Z" style="fill-rule:nonzero;"/></svg>