<?xml version="1.0" encoding="UTF-8" standalone="no"?><!DOCTYPE svg PUBLIC "-//W3C//DTD SVG 1.1//EN" "http://www.w3.org/Graphics/SVG/1.1/DTD/svg11.dtd"><svg width="100%" height="100%" viewBox="0 0 39 39" version="1.1" xmlns="http://www.w3.org/2000/svg" xmlns:xlink="http://www.w3.org/1999/xlink" xml:space="preserve" xmlns:serif="http://www.serif.com/" style="fill-rule:evenodd;clip-rule:evenodd;stroke-linejoin:round;stroke-miterlimit:1.41421;"><path d="M31.941,0l-25.543,0c-3.519,0 -6.398,2.879 -6.398,6.398l0,16.782c0,3.523 2.879,6.402 6.398,6.402l5.918,0l0,8.613l10.668,-8.613l8.957,0c3.52,0 6.399,-2.879 6.399,-6.402l0,-16.782c0.004,-3.519 -2.879,-6.398 -6.399,-6.398Zm2.403,23.18c0,1.3 -1.102,2.402 -2.403,2.402l-10.371,0l-1.097,0.887l-4.153,3.355l0,-4.242l-9.918,0c-1.3,0 -2.402,-1.102 -2.402,-2.402l0,-16.782c0,-1.3 1.102,-2.398 2.402,-2.398l25.539,0c1.301,0 2.403,1.098 2.403,2.398l0,16.782Z" style="fill:#353333;fill-rule:nonzero;"/><path d="M13.297,14.791c0,-1.286 -1.044,-2.33 -2.33,-2.33c-1.286,0 -2.33,1.044 -2.33,2.33c0,1.286 1.044,2.33 2.33,2.33c1.286,0 2.33,-1.044 2.33,-2.33Z" style="fill:#353333;"/><path d="M21.5,14.791c0,-1.286 -1.044,-2.33 -2.33,-2.33c-1.286,0 -2.33,1.044 -2.33,2.33c0,1.286 1.044,2.33 2.33,2.33c1.286,0 2.33,-1.044 2.33,-2.33Z" style="fill:#353333;"/><path d="M29.707,14.791c0,-1.286 -1.044,-2.33 -2.33,-2.33c-1.286,0 -2.33,1.044 -2.33,2.33c0,1.286 1.044,2.33 2.33,2.33c1.286,0 2.33,-1.044 2.33,-2.33Z" style="fill:#353333;"/></svg>