<?xml version="1.0" encoding="UTF-8" standalone="no"?>
<svg
   xmlns:dc="http://purl.org/dc/elements/1.1/"
   xmlns:cc="http://creativecommons.org/ns#"
   xmlns:rdf="http://www.w3.org/1999/02/22-rdf-syntax-ns#"
   xmlns:svg="http://www.w3.org/2000/svg"
   xmlns="http://www.w3.org/2000/svg"
   xmlns:sodipodi="http://sodipodi.sourceforge.net/DTD/sodipodi-0.dtd"
   xmlns:inkscape="http://www.inkscape.org/namespaces/inkscape"
   viewBox="0 0 452.802 810.953"
   version="1.1"
   id="svg18"
   sodipodi:docname="component-outline.svg"
   inkscape:version="0.92.2 5c3e80d, 2017-08-06">
  <metadata
     id="metadata22">
    <rdf:RDF>
      <cc:Work
         rdf:about="">
        <dc:format>image/svg+xml</dc:format>
        <dc:type
           rdf:resource="http://purl.org/dc/dcmitype/StillImage" />
        <dc:title></dc:title>
      </cc:Work>
    </rdf:RDF>
  </metadata>
  <sodipodi:namedview
     pagecolor="#ffffff"
     bordercolor="#666666"
     borderopacity="1"
     objecttolerance="10"
     gridtolerance="10"
     guidetolerance="10"
     inkscape:pageopacity="0"
     inkscape:pageshadow="2"
     inkscape:window-width="1531"
     inkscape:window-height="1075"
     id="namedview20"
     showgrid="false"
     inkscape:zoom="0.29101563"
     inkscape:cx="-536.44462"
     inkscape:cy="405.4765"
     inkscape:window-x="0"
     inkscape:window-y="0"
     inkscape:window-maximized="0"
     inkscape:current-layer="svg18" />
  <defs
     id="defs12">
    <style
       id="style2">.a{fill:none;}.b{clip-path:url(#a);}.c{fill-rule:evenodd;fill:url(#b);}</style>
    <clipPath
       id="a">
      <rect
         class="a"
         width="452.801"
         height="810.953"
         id="rect4" />
    </clipPath>
    <linearGradient
       id="b"
       x2="1"
       y2="1"
       gradientUnits="objectBoundingBox">
      <stop
         offset="0"
         stop-color="#ff4d4d"
         id="stop7" />
      <stop
         offset="1"
         stop-color="#ff7d4d"
         id="stop9" />
    </linearGradient>
  </defs>
  <g
     class="b"
     clip-path="url(#a)"
     id="g16"
     style="fill:none;stroke:#F2F2F2">
    <path
       class="c"
       d="M311.321,591.072a223.457,223.457,0,0,1,151.8,61.086C513.759,700.429,539.4,773,529.58,843.088,520.755,906.07,483.019,964.513,429.2,998.811c-47,29.939-105.531,41.067-160.423,30.54-67.515-12.95-127.78-59.277-157.759-121.932C81.655,846.052,82.59,771.334,114.3,710.368c35.092-67.461,105.958-114.5,183.52-118.935Q304.563,591.052,311.321,591.072ZM162.247,731.843C137.428,778.384,135,836.753,158.435,885.35c22.743,47.182,68.469,82.715,120.224,92.641A170.57,170.57,0,0,0,402.42,953.852c46.628-30.306,76.827-84.423,77.007-141.117.174-54.751-28.01-108.936-74.043-140.243A170.3,170.3,0,0,0,311.7,643.367c-.547-.007-1.088-.007-1.635-.007-42.843.207-84.791,17.436-115.771,46.627a131.083,131.083,0,0,0,31.474,21.976c-.12-.02-9.933,52.815-9.933,52.716a178.277,178.277,0,0,1-41.22-22.743Q168.191,737.17,162.247,731.843ZM128.3,448.747l47.576,21.475a42.446,42.446,0,0,0,36.314,28.424c25.313,2.45,51.274-20.306,44.652-51.474-3.131-14.719-12.583-23.37-24.058-34.024-18.651-17.323-39.865-31.935-56.233-51.607a153.725,153.725,0,0,1-26.121-44.418c-10.207-27.569-12.376-57.8-10.06-87.221.153-1.976.334-3.952.567-5.914l.2-1.709,51.934,6.342c.648,4.4,2.917,8.484,5.394,12.323,8.758,13.571,22,23.825,35.787,32.729,25.393,16.415,54.364,27.643,82.114,37.516,45.453,16.235,88.636,40.847,120.964,77.928a202.364,202.364,0,0,1,37.676,204.767,275.459,275.459,0,0,0-45.84-27.73c10.767-36.374,7.577-77.348-10.026-111.586-15.867-30.847-42.7-55.285-73.069-72.681-21.361-12.229-44.9-20.173-67.6-28.778-22.97-8.718-45.459-18.9-66.44-31.668l-.754-.461c.22.307.441.614.661.928,16.769,23.177,42.435,38.684,62.341,58.636,15.741,15.781,28.891,34.705,34,56.3,8.5,35.947-7.156,76.259-38.757,97.934-29.065,19.939-69.23,21.835-100.712,2.977a88.055,88.055,0,0,1-23.8-21.481c-.381-.521-.794-1.095-.794-1.095a129.9,129.9,0,0,0-9.833,88.7,276.659,276.659,0,0,0-40.3,41.675c-11.722-26.435-16.428-55.526-14.986-84.23.027-.581.06-1.168.093-1.749a178.961,178.961,0,0,1,6.976-38.183,187.775,187.775,0,0,1,41.581-72.061l.387-.414Z"
       transform="translate(-78.846 -222.278)"
       id="path14"
       style="fill:none;stroke:#F2F2F2" />
  </g>
</svg>
