<?xml version="1.0" encoding="UTF-8" standalone="no"?><!DOCTYPE svg PUBLIC "-//W3C//DTD SVG 1.1//EN" "http://www.w3.org/Graphics/SVG/1.1/DTD/svg11.dtd"><svg width="100%" height="100%" viewBox="0 0 206 206" version="1.1" xmlns="http://www.w3.org/2000/svg" xmlns:xlink="http://www.w3.org/1999/xlink" xml:space="preserve" xmlns:serif="http://www.serif.com/" style="fill-rule:evenodd;clip-rule:evenodd;stroke-linejoin:round;stroke-miterlimit:1.41421;"><rect x="87.758" y="47.398" width="29.555" height="29.559" style="fill:#dc364c;"/><path d="M102.535,205.074c56.539,0 102.535,-46 102.535,-102.539c0,-56.539 -45.996,-102.535 -102.535,-102.535c-56.539,0 -102.535,45.996 -102.535,102.535c0,56.539 45.996,102.539 102.535,102.539Zm0,-175.016c39.965,0 72.477,32.516 72.477,72.477c0,39.965 -32.512,72.48 -72.477,72.48c-39.965,0 -72.477,-32.515 -72.477,-72.48c0,-39.965 32.512,-72.477 72.477,-72.477Z" style="fill:#dc364c;fill-rule:nonzero;"/><rect x="87.508" y="89.171" width="30.059" height="65.629" style="fill:#dc364c;"/></svg>