<svg xmlns="http://www.w3.org/2000/svg" width="46.452" height="46.452" viewBox="0 0 46.452 46.452"><defs><style></style></defs><path class="a" d="M23.226,3.871A19.355,19.355,0,1,1,3.871,23.226,19.377,19.377,0,0,1,23.226,3.871Zm0-3.871A23.226,23.226,0,1,0,46.452,23.226,23.227,23.227,0,0,0,23.226,0Zm0,13.707c3.1,0,3.468.012,4.694.068,3.149.143,4.616,1.635,4.761,4.759.054,1.225.066,1.591.066,4.692s-.012,3.468-.066,4.692c-.145,3.122-1.61,4.618-4.761,4.761-1.225.054-1.591.068-4.694.068s-3.468-.012-4.692-.068c-3.155-.145-4.616-1.643-4.761-4.761-.054-1.223-.068-1.591-.068-4.692s.014-3.468.068-4.692c.143-3.126,1.61-4.618,4.761-4.761,1.223-.056,1.591-.066,4.692-.066Zm0-2.094c-3.155,0-3.548.014-4.788.072-4.219.194-6.561,2.534-6.755,6.753-.056,1.241-.07,1.635-.07,4.788s.014,3.55.07,4.788c.194,4.217,2.535,6.561,6.755,6.755,1.241.056,1.634.07,4.788.07s3.55-.014,4.79-.07c4.212-.194,6.563-2.534,6.753-6.755.056-1.239.07-1.634.07-4.788s-.014-3.548-.07-4.788c-.19-4.214-2.534-6.561-6.753-6.753-1.241-.058-1.635-.072-4.79-.072Zm0,5.65a5.963,5.963,0,1,0,5.963,5.963A5.963,5.963,0,0,0,23.226,17.263Zm0,9.834A3.871,3.871,0,1,1,27.1,23.226,3.87,3.87,0,0,1,23.226,27.1Zm6.2-11.462a1.394,1.394,0,1,0,1.4,1.394A1.394,1.394,0,0,0,29.423,15.635Z"/></svg>