<?xml version="1.0" encoding="UTF-8" standalone="no"?>
<!DOCTYPE svg PUBLIC "-//W3C//DTD SVG 1.1//EN" "http://www.w3.org/Graphics/SVG/1.1/DTD/svg11.dtd">
<svg width="100%" height="100%" viewBox="0 0 148 148" version="1.1" xmlns="http://www.w3.org/2000/svg" xmlns:xlink="http://www.w3.org/1999/xlink" xml:space="preserve" xmlns:serif="http://www.serif.com/" style="fill-rule:evenodd;clip-rule:evenodd;stroke-linejoin:round;stroke-miterlimit:1.41421;">
    <g transform="matrix(1,0,0,1,0,-116.367)">
        <path d="M131.876,147.074C123.408,147.074 116.517,140.187 116.517,131.719C116.517,123.254 123.408,116.367 131.876,116.367C140.345,116.367 147.232,123.254 147.232,131.719C147.232,140.187 140.345,147.074 131.876,147.074Z" style="fill-rule:nonzero;"/>
    </g>
    <g transform="matrix(1,0,0,1,0,17.289)">
        <path d="M64.892,0C29.115,0 0,29.109 0,64.891C0,100.672 29.115,129.785 64.892,129.785C100.677,129.785 129.79,100.672 129.79,64.891C129.79,29.113 100.677,0 64.892,0ZM64.892,102.371C44.24,102.371 27.419,85.555 27.419,64.891C27.419,44.234 44.24,27.426 64.892,27.426C85.556,27.426 102.365,44.234 102.365,64.891C102.365,85.555 85.556,102.371 64.892,102.371Z" style="fill-rule:nonzero;"/>
    </g>
</svg>
