<?xml version="1.0" encoding="UTF-8" standalone="no"?>
<!DOCTYPE svg PUBLIC "-//W3C//DTD SVG 1.1//EN" "http://www.w3.org/Graphics/SVG/1.1/DTD/svg11.dtd">
<svg width="100%" height="100%" viewBox="0 0 13 13" version="1.1" xmlns="http://www.w3.org/2000/svg" xmlns:xlink="http://www.w3.org/1999/xlink" xml:space="preserve" xmlns:serif="http://www.serif.com/" style="fill-rule:evenodd;clip-rule:evenodd;stroke-linejoin:round;stroke-miterlimit:1.41421;">
    <g transform="matrix(1,0,0,1,0,0.0957)">
        <path d="M12.504,11.013L10.191,8.705C10.824,7.795 11.199,6.693 11.199,5.506C11.199,2.412 8.691,-0.096 5.602,-0.096C2.508,-0.096 0,2.412 0,5.506C0,8.595 2.508,11.103 5.602,11.103C6.789,11.103 7.891,10.728 8.801,10.095L11.109,12.408C11.496,12.791 12.117,12.791 12.504,12.408C12.887,12.021 12.887,11.4 12.504,11.013ZM5.602,9.506C3.391,9.506 1.602,7.713 1.602,5.506C1.602,3.295 3.391,1.506 5.602,1.506C7.809,1.506 9.602,3.295 9.602,5.506C9.602,7.713 7.809,9.506 5.602,9.506Z" style=""/>
    </g>
</svg>
