<?xml version="1.0" encoding="UTF-8" standalone="no"?>
<!DOCTYPE svg PUBLIC "-//W3C//DTD SVG 1.1//EN" "http://www.w3.org/Graphics/SVG/1.1/DTD/svg11.dtd">
<svg width="100%" height="100%" viewBox="0 0 58 57" version="1.1" xmlns="http://www.w3.org/2000/svg" xmlns:xlink="http://www.w3.org/1999/xlink" xml:space="preserve" xmlns:serif="http://www.serif.com/" style="fill-rule:evenodd;clip-rule:evenodd;stroke-linejoin:round;stroke-miterlimit:1.41421;">
    <g transform="matrix(1,0,0,1,0,-0.0005)">
        <path d="M24.768,0.001C34.316,0.092 43.482,6.178 47.25,14.92C50.507,22.478 49.617,31.603 44.952,38.489L50.083,43.671L57.273,50.863L51.581,56.555L48.765,53.743C48.593,53.614 48.375,53.42 48.375,53.42L39.321,44.366C37.066,46.061 32.334,48.488 27.748,49.08C18.444,50.281 8.667,45.618 3.696,37.663C-0.284,31.294 -1.113,23.073 1.518,16.035C4.948,6.857 14.145,0.227 24.132,0.005C24.344,0.001 24.556,0 24.768,0.001ZM24.493,6.681C16.564,6.756 9.071,12.561 7.16,20.373C5.684,26.407 7.618,33.142 12.068,37.487C16.718,42.028 23.949,43.749 30.149,41.723C37.328,39.378 42.618,32.115 42.569,24.525C42.511,15.31 34.544,6.836 24.84,6.682C24.725,6.681 24.609,6.68 24.493,6.681Z" style="fill-rule:nonzero;"/>
    </g>
</svg>
