<?xml version="1.0" encoding="UTF-8" standalone="no"?><!DOCTYPE svg PUBLIC "-//W3C//DTD SVG 1.1//EN" "http://www.w3.org/Graphics/SVG/1.1/DTD/svg11.dtd"><svg width="100%" height="100%" viewBox="0 0 427 406" version="1.1" xmlns="http://www.w3.org/2000/svg" xmlns:xlink="http://www.w3.org/1999/xlink" xml:space="preserve" xmlns:serif="http://www.serif.com/" style="fill-rule:evenodd;clip-rule:evenodd;stroke-linejoin:round;stroke-miterlimit:1.41421;"><path d="M390.773,120.383c11.126,7.021 18.375,19.887 18.417,33.224c0.066,65.38 0.299,130.759 0.196,196.138c-0.049,10.408 -4.387,20.669 -11.809,27.915c-7.2,7.031 -17.124,11.095 -27.25,11.143c-104.579,0.165 -209.159,0.165 -313.738,0c-10.371,-0.049 -20.589,-4.349 -27.833,-11.724c-7.065,-7.192 -11.177,-17.208 -11.225,-27.334c-0.104,-65.407 -0.205,-130.814 0,-196.22c0.067,-12.854 6.906,-25.363 17.712,-32.56c0.297,-0.197 0.598,-0.391 0.9,-0.582l177.315,-103.842c59.104,34.614 118.21,69.228 177.315,103.842Zm-338.995,229.208c0.004,2.586 2.192,4.934 4.885,4.964c104.501,0.844 209.008,0 313.512,0c2.564,0 4.95,-2.145 4.963,-4.919l0,-0.03l-0.159,-158.56l-143.363,89.646c-0.792,0.452 -1.565,0.936 -2.374,1.356c-9.675,5.024 -21.76,5.093 -31.569,0c-0.808,-0.42 -1.582,-0.904 -2.373,-1.356l-143.522,-89.745c0,52.881 0,105.763 0,158.644Zm-0.156,-199.134l161.836,101.197l161.837,-101.197c-76.755,-44.928 -161.684,-94.931 -161.684,-94.931c0,0 -85.887,50.385 -161.989,94.931Z" style="fill-rule:nonzero;"/></svg>