<svg xmlns="http://www.w3.org/2000/svg" width="20" height="20" viewBox="0 0 20 20">
    <defs>
        <style>
            .cls-1{fill-rule:evenodd;fill:url(#linear-gradient)}
        </style>
        <linearGradient id="linear-gradient" x2="1" y1=".179" y2="1" gradientUnits="objectBoundingBox">
            <stop offset="0" stop-color="#ff4d4d"/>
            <stop offset="1" stop-color="#ff7d4d"/>
        </linearGradient>
    </defs>
    <path id="map-pin-location" d="M13 11.9V19h-2v-7.1a5 5 0 1 1 2 0zm-4 2.257v2.027c-2.933.366-5 1.2-5 1.816 0 .807 3.579 2 8 2s8-1.193 8-2c0-.613-2.067-1.45-5-1.816v-2.027c4.056.444 7 1.811 7 3.843 0 2.507-4.48 4-10 4S2 20.507 2 18c0-2.032 2.944-3.4 7-3.843zM12 10a3 3 0 1 0-3-3 3 3 0 0 0 3 3z" class="cls-1" transform="translate(-2 -2)"/>
</svg>
