<?xml version="1.0" encoding="UTF-8" standalone="no"?>
<!DOCTYPE svg PUBLIC "-//W3C//DTD SVG 1.1//EN" "http://www.w3.org/Graphics/SVG/1.1/DTD/svg11.dtd">
<svg width="100%" height="100%" viewBox="0 0 682 682" version="1.1" xmlns="http://www.w3.org/2000/svg" xmlns:xlink="http://www.w3.org/1999/xlink" xml:space="preserve" xmlns:serif="http://www.serif.com/" style="fill-rule:evenodd;clip-rule:evenodd;stroke-linejoin:round;stroke-miterlimit:1.41421;">
    <g transform="matrix(1.41177,0,0,1.41177,-139.051,-110.469)">
        <path d="M215.819,80.968C213.164,82.548 211.517,85.635 211.689,88.743L217.25,181.338C216.975,184.166 215.603,186.869 213.086,187.858C212.448,188.108 211.746,188.153 211.076,188.301C192.107,189.44 173.122,190.33 154.17,191.719C147.988,192.226 143.974,200.686 148.635,205.815L219.97,283.583C221.046,285.275 221.616,285.679 221.697,287.78C221.813,290.818 219.47,293.862 216.434,294.48C215.681,294.633 214.898,294.518 214.13,294.537C194.212,291.504 174.332,288.203 154.374,285.439C148.222,284.644 142.542,292.004 145.97,298.005L162.563,326.743C163.581,329.396 163.563,332.428 161.754,334.437C161.295,334.947 160.687,335.301 160.154,335.733C141.25,346.647 122.201,357.314 103.442,368.477C98.209,371.655 98.233,380.739 104.486,383.44L168.59,410.823C170.357,411.925 171.906,413.336 172.391,415.288C172.553,415.941 172.512,416.628 172.572,417.298C171.554,433.077 170.441,448.849 169.521,464.634C169.309,469.351 173.495,473.727 178.454,473.46L274.962,467.667C277.102,467.88 279.186,468.495 280.487,470.116C280.922,470.658 281.175,471.324 281.518,471.927C291.674,499.038 301.296,526.355 311.988,553.258C314.049,558.326 321.541,560.133 325.659,556.163L418.289,464.823L420.266,463.483C421.042,463.3 421.797,462.974 422.592,462.936C424.21,462.858 425.8,463.38 427.058,464.401C427.676,464.903 428.091,465.613 428.608,466.219C437.024,480.796 445.35,495.427 453.858,509.951C457.156,515.421 467.157,514.876 469.171,508.02C469.811,505.839 469.522,503.437 468.374,501.418L443.191,457.799C442.924,457.049 442.517,456.334 442.392,455.548C442.007,453.139 443.082,450.611 444.992,449.207C445.634,448.735 446.425,448.512 447.142,448.165C488.989,436.637 531.085,425.979 572.681,413.579C577.921,411.971 580.442,404.677 576.748,400.157L521.683,333.268C520.596,331.412 519.868,329.365 520.413,327.359C520.595,326.689 520.985,326.093 521.272,325.46C539.052,298.53 557.012,271.717 574.612,244.669C577.138,240.669 575.679,234.801 571.238,232.569L528.842,211.605C527.139,210.407 525.67,208.912 525.294,206.936C525.168,206.275 525.248,205.592 525.225,204.919C528.011,181.796 531.099,158.707 533.581,135.549C534.179,129.467 526.901,124.026 520.983,127.408L464.417,160.067C461.775,161.08 458.771,161.102 456.723,159.258C456.213,158.799 455.859,158.191 455.427,157.658C449.869,148.029 444.437,138.328 438.751,128.776C435.591,123.575 426.339,123.363 423.688,130.064L401.753,186.213C400.707,187.924 400.596,188.614 398.745,189.612C396.069,191.054 392.304,190.291 390.412,187.838C389.943,187.229 389.702,186.476 389.346,185.795C378.768,152.187 368.621,118.44 357.609,84.971C355.615,79.09 346.441,77.241 342.596,83.016L311.276,130.45C309.367,132.538 306.69,133.901 304.033,133.167C303.372,132.985 302.784,132.6 302.159,132.316C276.309,115.248 250.689,97.828 224.609,81.115C221.974,79.458 218.538,79.382 215.819,80.968ZM459.864,182.139C455.898,184.395 450.667,182.922 448.401,179.163C445.519,174.244 442.699,169.289 439.849,164.352C438.261,162.508 438.238,162.489 436.086,161.353C435.275,161.262 434.464,161.171 433.653,161.081C431.602,161.632 430.843,161.527 429.32,163.173C428.766,163.772 428.453,164.556 428.02,165.248L401.947,231.985C398.979,239.477 388.257,237.873 386.123,231.626C373.904,194.666 362.745,157.364 351.056,120.233C350.669,119.511 350.41,118.705 349.894,118.068C347.85,115.543 343.748,114.894 341,116.821C340.33,117.292 339.859,117.995 339.288,118.582L317.074,152.226C314.532,156.023 309.195,157.04 305.492,154.694C283.74,140.517 262.157,126.084 240.49,111.779C239.748,111.466 239.052,111.012 238.265,110.841C236.665,110.492 234.992,110.753 233.574,111.572C231.542,112.745 230.602,115.214 230.296,117.664L234.956,195.28C235.2,199.835 231.543,203.857 227.168,204.201C213.714,205.092 200.249,205.819 186.789,206.628C185.995,206.829 185.15,206.885 184.407,207.229C182.198,208.258 180.625,210.628 180.603,213.139C180.589,214.76 181.463,216.238 182.334,217.645L261.149,303.57C266.568,309.532 260.413,318.452 253.854,317.62C230.131,314.371 206.511,310.409 182.84,306.803C182.024,306.832 181.189,306.71 180.393,306.891C178.024,307.428 175.992,309.402 175.434,311.841C175.073,313.416 175.605,315.042 176.15,316.599L184.635,331.296C186.891,335.26 185.417,340.493 181.659,342.76C167.149,351.259 152.534,359.576 137.971,367.983C137.36,368.507 136.642,368.927 136.137,369.554C135.11,370.829 134.595,372.442 134.693,374.077C134.833,376.419 136.622,378.364 138.677,379.734L184.947,399.499C188.099,400.863 190.202,404.207 190.066,407.623C189.389,421.308 188.305,434.969 187.424,448.642C187.501,449.378 187.456,450.138 187.657,450.85C188.463,453.711 191.333,455.299 194.385,455.634L284.993,450.196C288.616,449.997 292.018,452.22 293.334,455.482C302.424,478.692 310.827,502.166 319.573,525.508C319.936,526.135 320.2,526.831 320.661,527.389C322.03,529.047 324.288,529.99 326.489,529.736C327.917,529.572 329.161,528.725 330.356,527.885L412.03,447.348C412.452,446.767 412.975,446.247 413.296,445.604C414.256,443.682 413.892,441.461 413.108,439.372L393.396,405.229C392.959,404.692 392.602,404.079 392.087,403.617C390.682,402.36 390.087,402.427 388.332,401.969L258.469,389.377C256.163,389.14 254.036,387.977 252.634,386.188C248.225,380.565 253.635,372.113 259.965,372.606C296.207,375.892 332.407,379.629 368.628,383.141C369.421,383.072 370.24,383.147 371.008,382.936C374.056,382.097 376.275,378.774 375.761,375.553C375.635,374.766 375.228,374.051 374.962,373.3L301.179,245.505C300.031,243.488 299.743,241.082 300.383,238.904C302.396,232.046 312.398,231.505 315.695,236.973C340.58,279.453 364.928,322.245 389.544,364.881C390.061,365.487 390.477,366.197 391.095,366.699C392.936,368.194 395.653,368.597 397.888,367.617C399.335,366.982 400.314,365.632 401.233,364.316L446.384,265.061C447.358,262.956 449.147,261.322 451.294,260.576C458.044,258.229 464.281,266.095 461.766,271.916C443.996,311.657 425.714,351.168 407.687,390.794C407.504,391.462 407.213,392.108 407.136,392.796C406.929,394.67 407.33,395.115 407.978,396.81L427.691,430.953C428.147,431.508 428.519,432.145 429.06,432.618C430.677,434.031 432.919,434.239 435.138,434.007L545.725,403.541C546.382,403.236 547.098,403.036 547.696,402.626C550.777,400.515 550.914,396.235 549.058,393.015L501.651,335.431C499.365,332.625 499.153,328.563 501.018,325.574C517.339,300.021 534.429,274.967 551.136,249.664C551.433,248.987 551.85,248.349 552.029,247.631C552.748,244.747 551.044,241.945 548.561,240.139L511.88,222.002C508.81,220.465 506.894,217.01 507.219,213.607C508.984,196.866 511.245,180.182 513.258,163.469C513.206,162.666 513.301,161.84 513.102,161.06C512.512,158.738 510.535,156.777 508.126,156.252C506.565,155.913 504.966,156.443 503.434,156.983L459.864,182.139Z" style="fill:rgb(222,232,197);"/>
    </g>
</svg>
