<svg xmlns="http://www.w3.org/2000/svg" xmlns:xlink="http://www.w3.org/1999/xlink" width="17.998" height="18" viewBox="0 0 17.998 18"><defs><style>.a{fill-rule:evenodd;fill:url(#a);}</style><linearGradient id="a" x1="0.5" x2="0.5" y2="1" gradientUnits="objectBoundingBox"><stop offset="0" stop-color="#ff4d4d"/><stop offset="1" stop-color="#ff7d4d"/></linearGradient></defs><path class="a" d="M10.076,5.828A1.372,1.372,0,0,1,9.97,7.7a4.907,4.907,0,0,1-.392.457c-.074.078-.131.136-.252.257l-.69.69a6.068,6.068,0,0,0,1.725,2.523,6.046,6.046,0,0,0,2.521,1.725l.69-.69a5.142,5.142,0,0,1,.857-.745,1.333,1.333,0,0,1,1.73-.007,26.9,26.9,0,0,1,3.18,2.489,2.43,2.43,0,0,1,.005,3.313c-.279.3-.633.65-1.052,1.053-2.53,2.532-7.87.991-11.962-3.105S.7,6.226,3.221,3.7c.453-.46.6-.61,1.044-1.045a2.444,2.444,0,0,1,3.332,0A28.74,28.74,0,0,1,10.076,5.828Zm4.767,8.11-.69.69C12.981,15.8,10.985,14.8,9.088,12.9s-2.9-3.9-1.724-5.068l.689-.69c.11-.11.161-.162.221-.225.083-.087.15-.163.2-.23A26.794,26.794,0,0,0,6.334,3.936a.673.673,0,0,0-.806,0c-.435.429-.578.572-1.03,1.03C2.874,6.592,4.117,10.9,7.6,14.391s7.794,4.73,9.43,3.094q.618-.6,1.006-1.006a.643.643,0,0,0,.005-.827,25.27,25.27,0,0,0-2.745-2.14A6.169,6.169,0,0,0,14.843,13.938Z" transform="translate(-1.995 -1.999)"/></svg>