<?xml version="1.0" encoding="UTF-8" standalone="no"?>
<svg
   xmlns:dc="http://purl.org/dc/elements/1.1/"
   xmlns:cc="http://creativecommons.org/ns#"
   xmlns:rdf="http://www.w3.org/1999/02/22-rdf-syntax-ns#"
   xmlns:svg="http://www.w3.org/2000/svg"
   xmlns="http://www.w3.org/2000/svg"
   xmlns:sodipodi="http://sodipodi.sourceforge.net/DTD/sodipodi-0.dtd"
   xmlns:inkscape="http://www.inkscape.org/namespaces/inkscape"
   viewBox="0 0 512 512"
   version="1.1"
   id="svg4"
   sodipodi:docname="phone.svg"
   inkscape:version="0.92.2 5c3e80d, 2017-08-06">
  <metadata
     id="metadata10">
    <rdf:RDF>
      <cc:Work
         rdf:about="">
        <dc:format>image/svg+xml</dc:format>
        <dc:type
           rdf:resource="http://purl.org/dc/dcmitype/StillImage" />
      </cc:Work>
    </rdf:RDF>
  </metadata>
  <defs
     id="defs8" />
  <sodipodi:namedview
     pagecolor="#ffffff"
     bordercolor="#666666"
     borderopacity="1"
     objecttolerance="10"
     gridtolerance="10"
     guidetolerance="10"
     inkscape:pageopacity="0"
     inkscape:pageshadow="2"
     inkscape:window-width="1035"
     inkscape:window-height="737"
     id="namedview6"
     showgrid="false"
     inkscape:zoom="0.4609375"
     inkscape:cx="256"
     inkscape:cy="256"
     inkscape:window-x="710"
     inkscape:window-y="293"
     inkscape:window-maximized="0"
     inkscape:current-layer="svg4" />
  <path
     d="M 18.589584,24.6 122.58958,0.6 c 11.3,-2.6 22.9,3.3 27.5,13.9 l 48,112 c 4.2,9.8 1.4,21.3 -6.9,28 l -60.6,49.6 c 36,76.7 98.9,140.5 177.2,177.2 l 49.6,-60.6 c 6.8,-8.3 18.2,-11.1 28,-6.9 l 112,48 c 10.7,4.7 16.6,16.3 14,27.6 l -24,104 c -2.5,10.8 -12.1,18.6 -23.4,18.6 -256.1,0 -463.9999958,-207.5 -463.9999958,-464 0,-11.2 7.7,-20.9 18.5999998,-23.4 z"
     id="path2"
     inkscape:connector-curvature="0" />
</svg>
