<svg xmlns="http://www.w3.org/2000/svg" width="91.052" height="48.411" viewBox="0 0 91.052 48.411"><defs><style>.a{fill:#ff4d4d;fill-rule:evenodd;}</style></defs><g transform="translate(0 0.141)"><path class="a" d="M91.052,20.128H88.269V37.761s0,.189-.011.352A10.644,10.644,0,0,1,68.6,43.262c-.057-.091-.112-.183-.167-.275l-.114-.2,2.179-1.258a9.01,9.01,0,0,0,1.432,1.887A8.125,8.125,0,0,0,85.1,40.811a8.127,8.127,0,0,0,.648-3.158V35.125a10.649,10.649,0,1,1-.395-14.182l.014.015c0-.6,0-1.191,0-1.787a1.612,1.612,0,0,1,1.569-1.56h4.112ZM55.619,38.9h-8.49V36.381h2.9V11.794h-2.9V9.276c1.388,0,2.775,0,4.163,0A1.564,1.564,0,0,1,52.809,10.8V36.381h2.81ZM67,38.9h-8.49V36.381h2.9V20.128h-2.9V17.611c1.374,0,2.748,0,4.121,0a1.611,1.611,0,0,1,1.559,1.569v17.2H67Zm-55.908,0H0V36.453H3.789V11.794H0V9.276q6.839,0,13.678,0a9.595,9.595,0,0,1,4.148,18.235l-.007,0,5.119,8.866,2.92-.026V38.9H22.1a1.687,1.687,0,0,1-1.4-.825l-5.61-9.717-.075.011a9.827,9.827,0,0,1-1.326.095H6.745v7.992h4.344ZM36.525,17.611a10.637,10.637,0,1,1-.65.017C36.092,17.616,36.309,17.611,36.525,17.611ZM29.35,24.387a8.119,8.119,0,1,0,7.194-4.259h-.079a8.263,8.263,0,0,0-5.573,2.244,6.312,6.312,0,0,0,1.515,1.058c-.006,0-.478,2.542-.478,2.537a8.578,8.578,0,0,1-1.984-1.095Q29.636,24.644,29.35,24.387ZM77.6,20.128a8.123,8.123,0,1,0,.079,0ZM13.417,11.774q-3.283.011-6.558.019H6.745v14.17c2.314,0,4.627,0,6.941,0A7.1,7.1,0,0,0,20.4,16.635a7.094,7.094,0,0,0-6.713-4.862Zm14.3-1.014,2.29,1.034a2.029,2.029,0,0,0,3.9-1.109,3.122,3.122,0,0,0-1.158-1.638,28.535,28.535,0,0,1-2.707-2.484,7.4,7.4,0,0,1-1.257-2.138A9.888,9.888,0,0,1,28.3.226c.007-.095.016-.19.027-.285l.01-.082,2.5.305a1.546,1.546,0,0,0,.26.593,5.584,5.584,0,0,0,1.723,1.575,18.935,18.935,0,0,0,3.952,1.806A13.714,13.714,0,0,1,42.591,7.89,9.741,9.741,0,0,1,44.4,17.746,13.247,13.247,0,0,0,42.2,16.412a7.335,7.335,0,0,0-.483-5.371,8.8,8.8,0,0,0-3.517-3.5,22.46,22.46,0,0,0-3.254-1.385,19.327,19.327,0,0,1-3.2-1.524L31.71,4.61l.032.045a26.157,26.157,0,0,0,3,2.822,5.843,5.843,0,0,1,1.637,2.71,4.51,4.51,0,0,1-6.713,4.857A4.233,4.233,0,0,1,28.52,14.01l-.038-.053a6.255,6.255,0,0,0-.473,4.27,13.3,13.3,0,0,0-1.94,2.006,8.911,8.911,0,0,1-.722-4.054q0-.042,0-.084a8.618,8.618,0,0,1,.336-1.838,9.038,9.038,0,0,1,2-3.469l.019-.02Zm35.052,1.034A1.91,1.91,0,0,1,64.579,13.3a1.857,1.857,0,1,1-3.661.61,1.91,1.91,0,0,1,1.064-1.947A1.886,1.886,0,0,1,62.768,11.794Z"/></g></svg>