<?xml version="1.0" encoding="UTF-8" standalone="no"?>
<!DOCTYPE svg PUBLIC "-//W3C//DTD SVG 1.1//EN" "http://www.w3.org/Graphics/SVG/1.1/DTD/svg11.dtd">
<svg width="100%" height="100%" viewBox="0 0 315 256" version="1.1" xmlns="http://www.w3.org/2000/svg" xmlns:xlink="http://www.w3.org/1999/xlink" xml:space="preserve" xmlns:serif="http://www.serif.com/" style="fill-rule:evenodd;clip-rule:evenodd;stroke-linejoin:round;stroke-miterlimit:1.41421;">
    <path d="M0,226.953C28.598,245.293 62.566,255.992 99.066,255.992C217.938,255.992 282.938,157.519 282.938,72.113C282.938,69.316 282.875,66.527 282.754,63.754C295.383,54.644 306.336,43.262 315,30.301C303.41,35.441 290.957,38.918 277.883,40.48C291.227,32.48 301.473,19.816 306.297,4.726C293.809,12.129 279.98,17.512 265.262,20.406C253.473,7.848 236.676,0 218.086,0C182.398,0 153.461,28.937 153.461,64.625C153.461,69.687 154.035,74.621 155.137,79.351C101.43,76.656 53.809,50.93 21.934,11.828C16.371,21.375 13.184,32.473 13.184,44.32C13.184,66.738 24.59,86.519 41.934,98.109C31.336,97.773 21.371,94.863 12.66,90.023C12.656,90.297 12.656,90.566 12.656,90.84C12.656,122.148 34.934,148.269 64.496,154.207C59.074,155.68 53.363,156.476 47.469,156.476C43.304,156.476 39.258,156.07 35.309,155.312C43.531,180.988 67.402,199.672 95.68,200.191C73.562,217.527 45.695,227.859 15.418,227.859C10.199,227.859 5.055,227.555 0,226.953Z" style="fill-rule:nonzero;"/>
</svg>
