<svg xmlns="http://www.w3.org/2000/svg" viewBox="0 0 46.704 46.704"><defs><style></style></defs><path class="a" d="M23.352,3.892a19.46,19.46,0,1,1-19.46,19.46A19.482,19.482,0,0,1,23.352,3.892Zm0-3.892A23.352,23.352,0,1,0,46.7,23.352,23.353,23.353,0,0,0,23.352,0ZM36,17.082a9.589,9.589,0,0,1-2.752.755,4.812,4.812,0,0,0,2.108-2.65,9.587,9.587,0,0,1-3.044,1.162,4.793,4.793,0,0,0-8.164,4.369,13.608,13.608,0,0,1-9.874-5.005,4.8,4.8,0,0,0,1.483,6.4,4.782,4.782,0,0,1-2.168-.6,4.8,4.8,0,0,0,3.843,4.758,4.8,4.8,0,0,1-2.164.082,4.8,4.8,0,0,0,4.476,3.326,9.642,9.642,0,0,1-7.1,1.987,13.625,13.625,0,0,0,20.96-12.1A9.658,9.658,0,0,0,36,17.082Z"/></svg>