<?xml version="1.0" encoding="UTF-8" standalone="no"?>
<!DOCTYPE svg PUBLIC "-//W3C//DTD SVG 1.1//EN" "http://www.w3.org/Graphics/SVG/1.1/DTD/svg11.dtd">
<svg width="100%" height="100%" viewBox="0 0 315 220" version="1.1" xmlns="http://www.w3.org/2000/svg" xmlns:xlink="http://www.w3.org/1999/xlink" xml:space="preserve" xmlns:serif="http://www.serif.com/" style="fill-rule:evenodd;clip-rule:evenodd;stroke-linejoin:round;stroke-miterlimit:1.41421;">
    <g transform="matrix(1,0,0,1,0,0.0094)">
        <path d="M39.535,215.191C78.594,219.542 118.121,219.57 157.484,219.542C196.859,219.57 236.395,219.542 275.438,215.191C291.93,213.347 305.633,200.98 309.492,184.23C314.984,160.382 315,134.328 315,109.765C315,85.207 315.051,59.164 309.555,35.316C305.695,18.55 291.996,6.199 275.496,4.359C236.441,-0.008 196.906,-0.024 157.551,-0.008C118.188,-0.024 78.641,-0.008 39.578,4.359C23.102,6.199 9.398,18.55 5.555,35.316C0.066,59.164 0,85.207 0,109.769C0,134.331 0,160.382 5.496,184.23C9.336,200.98 23.039,213.347 39.535,215.191ZM116.855,54.499C150.23,71.914 183.395,89.207 216.992,106.738C183.492,124.105 150.324,141.312 116.855,158.667L116.855,54.499Z" style="fill-rule:nonzero;"/>
    </g>
</svg>
