<svg xmlns="http://www.w3.org/2000/svg" width="46.452" height="46.452" viewBox="0 0 46.452 46.452"><defs><style></style></defs><path class="a" d="M31.413,13.746c-3.875-.263-12.507-.261-16.376,0-4.19.286-4.682,2.818-4.715,9.48.033,6.65.523,9.194,4.717,9.48,3.869.261,12.5.263,16.376,0,4.19-.286,4.684-2.82,4.717-9.48-.035-6.65-.525-9.194-4.719-9.48ZM19.355,27.527v-8.6L28.6,23.218ZM23.226,3.871A19.355,19.355,0,1,1,3.871,23.226,19.377,19.377,0,0,1,23.226,3.871Zm0-3.871A23.226,23.226,0,1,0,46.452,23.226,23.227,23.227,0,0,0,23.226,0Z"/></svg>