<svg viewBox="0 0 273 118" xmlns="http://www.w3.org/2000/svg" fill-rule="evenodd" clip-rule="evenodd" stroke-linejoin="round" stroke-miterlimit="1.41"><path d="M63.315 117.301c1.621 0 2.432-.729 2.432-2.188V92.579h18.075c1.405 0 2.107-.81 2.107-2.431a1.909 1.909 0 00-2.107-2.189H65.747V2.203a1.992 1.992 0 00-1.7-2.107l.081-.081h-4.053A2.103 2.103 0 0058.13 1.15L.257 87.959a2.333 2.333 0 00-.244 1.054v1.3c0 1.513.703 2.269 2.108 2.269H61.21v22.534a1.91 1.91 0 002.107 2.188l-.002-.003zM5.523 87.959L61.208 4.635v83.324H5.523zm129.646 29.342c20.722-.077 37.738-17.13 37.771-37.852V37.787c0-20.743-17.069-37.812-37.812-37.812S97.316 17.044 97.316 37.787v41.662c.033 20.753 17.1 37.82 37.853 37.852zm0-112.18c18.205-.012 33.2 14.947 33.232 33.152v40.608c0 18.209-14.983 33.192-33.192 33.192s-33.192-14.983-33.192-33.192V38.273c.034-18.173 14.979-33.116 33.152-33.148v-.004zm114.888 112.18c1.63 0 2.44-.729 2.44-2.188V92.579h18.07c1.41 0 2.11-.81 2.11-2.431a1.909 1.909 0 00-2.11-2.189h-18.07V2.203a1.993 1.993 0 00-1.71-2.107l.09-.081h-4.06a2.103 2.103 0 00-1.94 1.135l-57.88 86.809a2.348 2.348 0 00-.24 1.054v1.3c0 1.513.7 2.269 2.11 2.269h59.09v22.534a1.909 1.909 0 002.1 2.188v-.003zm-57.79-29.342l55.69-83.324v83.324h-55.69z" fill="#353333"/><path d="M125.38 50.549c.16-.15.298-.322.406-.512.054-.072.104-.146.149-.224.28-.581.28-1.26 0-1.841a1.935 1.935 0 00-.149-.224 2.213 2.213 0 00-.406-.514c-.03-.025-.041-.064-.072-.089l-11.171-8.936a2.235 2.235 0 00-2.792 3.489l6.197 4.961h-7.035a2.234 2.234 0 100 4.468h7.035l-6.197 4.958a2.234 2.234 0 102.792 3.488l11.171-8.936c.031-.024.042-.062.072-.088zM159.657 46.659h-7.035l6.197-4.958a2.235 2.235 0 00-2.793-3.489l-11.17 8.936c-.032.024-.043.063-.072.089-.16.149-.298.322-.406.511a2.353 2.353 0 00-.149.224 2.116 2.116 0 000 1.841c.045.078.095.152.149.224.108.19.246.362.406.512.029.026.04.064.072.088l11.17 8.936a2.234 2.234 0 102.793-3.488l-6.197-4.958h7.035a2.234 2.234 0 100-4.468zM135.082 66.766a20.028 20.028 0 00-18.644 12.566 2.235 2.235 0 004.142 1.676 15.64 15.64 0 0129.004 0 2.234 2.234 0 104.142-1.676 20.028 20.028 0 00-18.644-12.566z" fill="#353333" fill-rule="nonzero"/></svg>