<svg viewBox="0 0 383 149" xmlns="http://www.w3.org/2000/svg" fill-rule="evenodd" clip-rule="evenodd" stroke-linejoin="round" stroke-miterlimit="1.41"><path fill="none" d="M0 0h382.43v148.8H0z"/><path fill="#fff" d="M72.48 19.34l-8.9 42.04h1.13c15.15 0 27.27-16.48 27.27-30.68 0-10.79-7-20.44-25-20.44-22.15 0-47.33 14.76-47.33 46 0 9.66 2.46 11.17 2.65 12.88-12.5 0-20.26-4.73-20.26-17.42C2.04 25.59 35 1.54 70.77 1.54c27.84 0 40.33 14.58 40.33 30.11 0 11.17-6.63 23.1-18.93 30.1 16.1 3.22 22.34 16.29 22.34 30.49 0 18.18-9.84 54.53-41.47 54.53-8.14 0-18.74-2.46-18.74-14.01 0-3.03.76-6.63 2.46-10.98 4.73 4.92 8.33 6.81 12.69 6.81 13.82 0 18.74-19.69 18.74-34.08 0-13.25-4.16-24.05-17.99-24.05-1.51 0-5.3.2-8.7.57l-15.53 72.52H18.7L44.45 23.13l28.03-3.79zm87.1 29.54l-2.46 11.74c6.63-5.68 13.82-11.74 22.9-11.74 8.53 0 13.07 7 13.07 14.2 0 6.63-4.35 13.82-13.63 13.82-10.6 0-5.3-12.5-10.98-12.5-5.68 0-9.09 2.85-13.82 7.2l-15.15 71.95h-27.27l20.07-94.67h27.27zm70.05 0L216 113.26a26.37 26.37 0 00-.76 6.06c0 5.3 2.46 7 7.76 7 7.39 0 14.2-7.2 17.04-16.66H248c-10.8 30.86-29.53 35.03-39.75 35.03-11.36 0-20.26-6.82-20.26-22.73 0-3.59.57-7.76 1.52-12.3l12.87-60.78h27.26zm114.09 38.17c-3.08-1.15-4.6-3.84-4.6-8.64 0-5.18 2.1-8.45 5.37-9.99-.39-8.06-2.5-10.95-7.3-10.95-13.63 0-24.96 35.14-24.96 53.97 0 12.67 2.5 15.55 9.8 15.55 9.4 0 18.8-17.29 21.7-39.94m16.31-15.36c6.72-1.35 11.52-9.6 13.63-13.25h6.14c-3.84 8.26-9.6 20.16-19.77 25.73-2.3 36.86-21.5 60.1-45.7 60.1-17.84 0-30.71-8.45-30.71-30.34 0-22.08 12.48-68.16 52.02-68.16 15.18 0 23.24 8.83 24.39 25.92" fill-rule="nonzero"/><path fill="#fff" d="M251.87 51.31l5.55-25.5 27.35-3.71-6.27 29.21-1.48 7.4-11.84 55.47c-.55 2.4-.74 4.26-.74 5.92 0 5.18 2.4 6.84 7.58 6.84 7.2 0 13.87-7.02 16.64-16.27h7.77c-10.54 30.14-28.84 34.2-38.83 34.2-11.1 0-19.79-6.65-19.79-22.18 0-3.52.56-7.58 1.49-12.02l11.1-51.96 1.47-7.4zm-21.65-25.1v3.58c-2.58 5.2-9.94 3.4-9.94-2.04l4.17-6.32-6.92-7.55-6.93 7.55 4.17 6.32c0 5.45-7.35 7.25-9.94 2.04V26.2l-12.58-5.47 8.84 21.6h32.88l8.84-21.6-12.59 5.47z" fill-rule="nonzero"/></svg>