<svg viewBox="0 0 39 39" xmlns="http://www.w3.org/2000/svg" fill-rule="evenodd" clip-rule="evenodd" stroke-linejoin="round" stroke-miterlimit="1.41"><path d="M31.941 0H6.398C2.879 0 0 2.879 0 6.398V23.18c0 3.523 2.879 6.402 6.398 6.402h5.918v8.613l10.668-8.613h8.957c3.52 0 6.399-2.879 6.399-6.402V6.398C38.344 2.879 35.461 0 31.941 0zm2.403 23.18c0 1.3-1.102 2.402-2.403 2.402H21.57l-1.097.887-4.153 3.355v-4.242H6.402C5.102 25.582 4 24.48 4 23.18V6.398C4 5.098 5.102 4 6.402 4h25.539c1.301 0 2.403 1.098 2.403 2.398V23.18z" fill="#353333" fill-rule="nonzero"/><path d="M13.297 14.791a2.331 2.331 0 00-4.66 0 2.331 2.331 0 004.66 0zM21.5 14.791a2.331 2.331 0 00-4.66 0 2.331 2.331 0 004.66 0zM29.707 14.791a2.331 2.331 0 00-4.66 0 2.331 2.331 0 004.66 0z" fill="#353333"/></svg>