<svg xmlns="http://www.w3.org/2000/svg" viewBox="0 0 452.8 810.95"><defs><clipPath id="a"><path fill="none" d="M0 0h452.8v810.95H0z"/></clipPath></defs><g clip-path="url(#a)" fill="none" stroke="#f2f2f2"><path d="M232.475 368.794a223.457 223.457 0 01151.8 61.086c50.638 48.271 76.279 120.842 66.459 190.93-8.825 62.982-46.561 121.425-100.38 155.723-47 29.939-105.531 41.067-160.423 30.54-67.515-12.95-127.78-59.277-157.759-121.932C2.809 623.774 3.744 549.056 35.454 488.09c35.092-67.461 105.958-114.5 183.52-118.935q6.743-.381 13.501-.361zM83.401 509.565c-24.819 46.541-27.247 104.91-3.812 153.507 22.743 47.182 68.469 82.715 120.224 92.641a170.57 170.57 0 00123.761-24.139c46.628-30.306 76.827-84.423 77.007-141.117.174-54.751-28.01-108.936-74.043-140.243a170.3 170.3 0 00-93.684-29.125c-.547-.007-1.088-.007-1.635-.007-42.843.207-84.791 17.436-115.771 46.627a131.083 131.083 0 0031.474 21.976c-.12-.02-9.933 52.815-9.933 52.716a178.277 178.277 0 01-41.22-22.743q-6.424-4.766-12.368-10.093zM49.454 226.469l47.576 21.475a42.446 42.446 0 0036.314 28.424c25.313 2.45 51.274-20.306 44.652-51.474-3.131-14.719-12.583-23.37-24.058-34.024-18.651-17.323-39.865-31.935-56.233-51.607a153.725 153.725 0 01-26.121-44.418c-10.207-27.569-12.376-57.8-10.06-87.221.153-1.976.334-3.952.567-5.914l.2-1.709 51.934 6.342c.648 4.4 2.917 8.484 5.394 12.323 8.758 13.571 22 23.825 35.787 32.729 25.393 16.415 54.364 27.643 82.114 37.516 45.453 16.235 88.636 40.847 120.964 77.928a202.364 202.364 0 0137.676 204.767 275.459 275.459 0 00-45.84-27.73c10.767-36.374 7.577-77.348-10.026-111.586-15.867-30.847-42.7-55.285-73.069-72.681-21.361-12.229-44.9-20.173-67.6-28.778-22.97-8.718-45.459-18.9-66.44-31.668l-.754-.461c.22.307.441.614.661.928 16.769 23.177 42.435 38.684 62.341 58.636 15.741 15.781 28.891 34.705 34 56.3 8.5 35.947-7.156 76.259-38.757 97.934-29.065 19.939-69.23 21.835-100.712 2.977a88.055 88.055 0 01-23.8-21.481c-.381-.521-.794-1.095-.794-1.095a129.9 129.9 0 00-9.833 88.7 276.659 276.659 0 00-40.3 41.675C3.515 396.841-1.191 367.75.251 339.046c.027-.581.06-1.168.093-1.749a178.961 178.961 0 016.976-38.183 187.775 187.775 0 0141.581-72.061l.387-.414z"/></g></svg>