<svg viewBox="0 0 64 65" xmlns="http://www.w3.org/2000/svg" fill-rule="evenodd" clip-rule="evenodd" stroke-linejoin="round" stroke-miterlimit="1.41"><path d="M5.598 64.07h52.25a5.602 5.602 0 005.601-5.602V25.3a5.598 5.598 0 00-2.23-4.473L35.098 1.128a5.607 5.607 0 00-6.746 0L2.227 20.827A5.603 5.603 0 000 25.3v33.168a5.601 5.601 0 005.598 5.602zm5.601-35.981l20.524-15.476 20.523 15.476v24.777H37.695V41.132a2.047 2.047 0 00-2.046-2.051h-7.852a2.05 2.05 0 00-2.047 2.051v11.734H11.199V28.089z" fill-rule="nonzero"/></svg>