<svg viewBox="0 0 148 148" xmlns="http://www.w3.org/2000/svg" fill-rule="evenodd" clip-rule="evenodd" stroke-linejoin="round" stroke-miterlimit="1.41"><path d="M131.876 30.707c-8.468 0-15.359-6.887-15.359-15.355C116.517 6.887 123.408 0 131.876 0c8.469 0 15.356 6.887 15.356 15.352 0 8.468-6.887 15.355-15.356 15.355zM64.892 17.289C29.115 17.289 0 46.398 0 82.18c0 35.781 29.115 64.894 64.892 64.894 35.785 0 64.898-29.113 64.898-64.894 0-35.778-29.113-64.891-64.898-64.891zm0 102.371c-20.652 0-37.473-16.816-37.473-37.48 0-20.657 16.821-37.465 37.473-37.465 20.664 0 37.473 16.808 37.473 37.465 0 20.664-16.809 37.48-37.473 37.48z" fill-rule="nonzero"/></svg>