<svg viewBox="0 0 58 57" xmlns="http://www.w3.org/2000/svg" fill-rule="evenodd" clip-rule="evenodd" stroke-linejoin="round" stroke-miterlimit="1.41"><path d="M24.768 0c9.548.091 18.714 6.177 22.482 14.92 3.257 7.558 2.367 16.683-2.298 23.568l5.131 5.182 7.19 7.192-5.692 5.692-2.816-2.812c-.172-.129-.39-.322-.39-.322l-9.054-9.055c-2.255 1.695-6.987 4.122-11.573 4.714-9.304 1.201-19.081-3.462-24.052-11.417-3.98-6.369-4.809-14.59-2.178-21.628C4.948 6.856 14.145.226 24.132.004 24.344 0 24.556 0 24.768 0zm-.275 6.68c-7.929.075-15.422 5.88-17.333 13.692-1.476 6.034.458 12.77 4.908 17.114 4.65 4.541 11.881 6.263 18.081 4.236 7.179-2.345 12.469-9.608 12.42-17.198-.058-9.215-8.025-17.689-17.729-17.843-.115 0-.231-.002-.347 0z" fill-rule="nonzero"/></svg>