<svg viewBox="0 0 427 406" xmlns="http://www.w3.org/2000/svg" fill-rule="evenodd" clip-rule="evenodd" stroke-linejoin="round" stroke-miterlimit="1.41"><path d="M390.773 120.383c11.126 7.021 18.375 19.887 18.417 33.224.066 65.38.299 130.759.196 196.138-.049 10.408-4.387 20.669-11.809 27.915-7.2 7.031-17.124 11.095-27.25 11.143-104.579.165-209.159.165-313.738 0-10.371-.049-20.589-4.349-27.833-11.724-7.065-7.192-11.177-17.208-11.225-27.334-.104-65.407-.205-130.814 0-196.22.067-12.854 6.906-25.363 17.712-32.56.297-.197.598-.391.9-.582L213.458 16.541l177.315 103.842zM51.778 349.591c.004 2.586 2.192 4.934 4.885 4.964 104.501.844 209.008 0 313.512 0 2.564 0 4.95-2.145 4.963-4.919v-.03l-.159-158.56-143.363 89.646c-.792.452-1.565.936-2.374 1.356-9.675 5.024-21.76 5.093-31.569 0-.808-.42-1.582-.904-2.373-1.356L51.778 190.947v158.644zm-.156-199.134l161.836 101.197 161.837-101.197c-76.755-44.928-161.684-94.931-161.684-94.931s-85.887 50.385-161.989 94.931z" fill-rule="nonzero"/></svg>