<svg viewBox="0 0 682 682" xmlns="http://www.w3.org/2000/svg" fill-rule="evenodd" clip-rule="evenodd" stroke-linejoin="round" stroke-miterlimit="1.41"><path d="M165.636 3.84c-3.748 2.23-6.074 6.588-5.83 10.976l7.85 130.723c-.388 3.992-2.325 7.808-5.879 9.204-.9.353-1.891.417-2.837.626-26.78 1.608-53.583 2.864-80.338 4.825-8.728.716-14.395 12.66-7.815 19.9l100.709 109.791c1.52 2.389 2.324 2.959 2.438 5.925.164 4.29-3.144 8.587-7.43 9.459-1.063.216-2.168.054-3.253.08-28.12-4.281-56.185-8.942-84.361-12.844-8.686-1.122-16.704 9.268-11.865 17.74l23.426 40.572c1.437 3.745 1.411 8.026-1.143 10.862-.648.72-1.506 1.22-2.258 1.83-26.688 15.408-53.581 30.467-80.065 46.227-7.387 4.486-7.354 17.31 1.474 21.124l90.5 38.659c2.495 1.555 4.682 3.547 5.366 6.303.23.922.171 1.892.256 2.838-1.437 22.276-3.009 44.543-4.307 66.827-.3 6.66 5.61 12.838 12.611 12.46l136.247-8.178c3.021.3 5.963 1.17 7.8 3.458.614.765.971 1.705 1.456 2.556 14.338 38.275 27.922 76.84 43.016 114.821 2.91 7.155 13.487 9.706 19.3 4.101l130.773-128.95 2.79-1.893c1.096-.258 2.162-.718 3.285-.772a9.296 9.296 0 016.305 2.068c.872.71 1.458 1.711 2.188 2.567 11.881 20.58 23.636 41.235 35.647 61.74 4.656 7.722 18.775 6.952 21.619-2.727.903-3.079.495-6.47-1.126-9.32l-35.552-61.58c-.377-1.059-.952-2.068-1.128-3.178-.544-3.401.974-6.97 3.67-8.952.907-.666 2.023-.981 3.036-1.471 59.078-16.275 118.508-31.322 177.232-48.828 7.398-2.27 10.957-12.567 5.742-18.948l-77.74-94.432c-1.534-2.62-2.562-5.51-1.793-8.342.257-.946.808-1.788 1.213-2.681 25.101-38.02 50.457-75.873 75.304-114.059 3.566-5.647 1.506-13.931-4.763-17.082l-59.854-29.596c-2.404-1.692-4.478-3.802-5.009-6.592-.178-.933-.065-1.897-.097-2.848 3.933-32.644 8.293-65.24 11.797-97.934.844-8.586-9.431-16.268-17.786-11.493L516.6 115.509c-3.73 1.43-7.97 1.461-10.862-1.142-.72-.648-1.22-1.507-1.83-2.26-7.846-13.593-15.515-27.289-23.543-40.774-4.46-7.343-17.522-7.642-21.265 1.818l-30.967 79.27c-1.477 2.415-1.634 3.39-4.247 4.799-3.778 2.035-9.093.958-11.764-2.505-.662-.86-1.002-1.923-1.505-2.884-14.934-47.447-29.259-95.09-44.805-142.34-2.815-8.303-15.767-10.913-21.195-2.76l-44.217 66.965c-2.695 2.948-6.474 4.872-10.225 3.836-.934-.257-1.764-.8-2.646-1.201-36.494-24.096-72.664-48.69-109.483-72.284-3.72-2.34-8.57-2.447-12.41-.208zM510.17 146.67c-5.599 3.184-12.984 1.105-16.183-4.202-4.069-6.945-8.05-13.94-12.073-20.91-2.242-2.603-2.275-2.63-5.313-4.234l-3.435-.384c-2.895.778-3.967.63-6.117 2.954-.782.845-1.224 1.952-1.835 2.93l-36.81 94.216c-4.19 10.577-19.326 8.313-22.34-.506-17.25-52.18-33.003-104.841-49.506-157.262-.546-1.019-.912-2.157-1.64-3.056-2.886-3.565-8.677-4.481-12.556-1.76-.946.664-1.611 1.657-2.417 2.486l-31.361 47.497c-3.59 5.36-11.124 6.796-16.352 3.484-30.708-20.014-61.179-40.39-91.767-60.586-1.048-.442-2.03-1.083-3.142-1.324a9.286 9.286 0 00-6.622 1.032c-2.869 1.656-4.196 5.142-4.628 8.6l6.579 109.576c.344 6.431-4.819 12.11-10.995 12.595-18.994 1.258-38.003 2.284-57.006 3.426-1.12.284-2.314.363-3.363.849-3.118 1.452-5.339 4.798-5.37 8.343-.02 2.289 1.214 4.375 2.444 6.362L229.63 318.102c7.65 8.417-1.039 21.01-10.299 19.835-33.491-4.586-66.837-10.18-100.255-15.27-1.152.04-2.33-.132-3.455.124-3.344.758-6.213 3.544-7 6.988-.51 2.223.24 4.519 1.01 6.717l11.98 20.749c3.184 5.596 1.103 12.984-4.202 16.184-20.485 11.999-41.118 23.74-61.678 35.61-.862.74-1.876 1.332-2.589 2.217a9.294 9.294 0 00-2.038 6.386c.197 3.306 2.723 6.052 5.624 7.986l65.323 27.904c4.45 1.925 7.418 6.646 7.226 11.469-.955 19.32-2.486 38.606-3.73 57.91.11 1.038.046 2.111.33 3.117 1.137 4.039 5.19 6.28 9.498 6.753l127.918-7.677c5.114-.28 9.917 2.858 11.775 7.463 12.833 32.767 24.696 65.907 37.044 98.86.512.886.885 1.868 1.536 2.656 1.932 2.34 5.12 3.672 8.227 3.313 2.016-.231 3.773-1.427 5.46-2.613l115.305-113.7c.595-.82 1.334-1.554 1.787-2.462 1.355-2.713.841-5.849-.266-8.798l-27.828-48.202c-.617-.758-1.121-1.623-1.848-2.276-1.984-1.774-2.824-1.68-5.302-2.326l-183.336-17.777c-3.256-.335-6.259-1.977-8.238-4.502-6.224-7.939 1.413-19.871 10.35-19.175 51.165 4.639 102.271 9.915 153.407 14.873 1.12-.097 2.276.008 3.36-.29 4.303-1.184 7.436-5.875 6.71-10.423-.178-1.11-.752-2.12-1.128-3.18L286.144 236.128c-1.62-2.848-2.027-6.245-1.123-9.32 2.842-9.681 16.962-10.445 21.617-2.726 35.132 59.972 69.505 120.385 104.258 180.577.73.856 1.317 1.858 2.19 2.567 2.598 2.11 6.434 2.68 9.59 1.296 2.042-.897 3.424-2.803 4.722-4.66l63.743-140.126c1.375-2.972 3.9-5.278 6.931-6.332 9.53-3.313 18.335 7.792 14.784 16.01-25.087 56.105-50.897 111.885-76.347 167.828-.258.943-.669 1.855-.778 2.827-.292 2.645.274 3.274 1.19 5.666l27.83 48.203c.643.783 1.168 1.682 1.932 2.35 2.283 1.995 5.448 2.289 8.58 1.961l156.124-43.01c.928-.432 1.939-.714 2.783-1.293 4.35-2.98 4.543-9.022 1.923-13.568l-66.928-81.296c-3.227-3.961-3.527-9.696-.894-13.915 23.042-36.075 47.169-71.446 70.755-107.168.42-.956 1.008-1.856 1.261-2.87 1.015-4.072-1.39-8.027-4.896-10.577l-51.785-25.605c-4.334-2.17-7.04-7.048-6.58-11.852 2.491-23.634 5.683-47.188 8.525-70.783-.073-1.134.061-2.3-.22-3.401-.833-3.278-3.624-6.047-7.025-6.788-2.204-.479-4.461.27-6.624 1.032l-61.51 35.514z" fill="#dee8c5"/></svg>