<svg xmlns="http://www.w3.org/2000/svg" width="18" height="18" viewBox="0 0 18 18"><defs><linearGradient id="a" x1=".5" x2=".5" y2="1" gradientUnits="objectBoundingBox"><stop offset="0" stop-color="#ff4d4d"/><stop offset="1" stop-color="#ff7d4d"/></linearGradient></defs><path d="M10.076 5.828A1.372 1.372 0 019.97 7.7a4.907 4.907 0 01-.392.457c-.074.078-.131.136-.252.257l-.69.69a6.068 6.068 0 001.725 2.523 6.046 6.046 0 002.521 1.725l.69-.69a5.142 5.142 0 01.857-.745 1.333 1.333 0 011.73-.007 26.9 26.9 0 013.18 2.489 2.43 2.43 0 01.005 3.313c-.279.3-.633.65-1.052 1.053-2.53 2.532-7.87.991-11.962-3.105S.7 6.226 3.221 3.7c.453-.46.6-.61 1.044-1.045a2.444 2.444 0 013.332 0 28.74 28.74 0 012.479 3.173zm4.767 8.11l-.69.69c-1.172 1.172-3.168.172-5.065-1.728S6.188 9 7.364 7.832l.689-.69c.11-.11.161-.162.221-.225a2.61 2.61 0 00.2-.23 26.794 26.794 0 00-2.14-2.751.673.673 0 00-.806 0 83.33 83.33 0 00-1.03 1.03C2.874 6.592 4.117 10.9 7.6 14.391s7.794 4.73 9.43 3.094q.618-.6 1.006-1.006a.643.643 0 00.005-.827 25.27 25.27 0 00-2.745-2.14 6.169 6.169 0 00-.453.426z" transform="translate(-1.995 -1.999)" fill-rule="evenodd" fill="url(#a)"/></svg>