<svg xmlns="http://www.w3.org/2000/svg" width="91.05" height="48.41" viewBox="0 0 91.05 48.41"><path d="M91.052 20.269h-2.783v17.633s0 .189-.011.352A10.644 10.644 0 0168.6 43.403a15.484 15.484 0 01-.167-.275l-.114-.2 2.179-1.258a9.01 9.01 0 001.432 1.887 8.125 8.125 0 0013.17-2.605 8.127 8.127 0 00.648-3.158v-2.528a10.649 10.649 0 11-.395-14.182l.014.015v-1.787a1.612 1.612 0 011.569-1.56h4.112zM55.619 39.041h-8.49v-2.519h2.9V11.935h-2.9V9.417h4.163a1.564 1.564 0 011.517 1.524v25.581h2.81zm11.381 0h-8.49v-2.519h2.9V20.269h-2.9v-2.517h4.121a1.611 1.611 0 011.559 1.569v17.2H67zm-55.908 0H0v-2.447h3.789V11.935H0V9.417h13.678a9.595 9.595 0 014.148 18.235h-.007l5.119 8.866 2.92-.026v2.549H22.1a1.687 1.687 0 01-1.4-.825l-5.61-9.717-.075.011a9.827 9.827 0 01-1.326.095H6.745v7.992h4.344zm25.433-21.289a10.637 10.637 0 11-.65.017c.217-.012.434-.017.65-.017zm-7.175 6.776a8.119 8.119 0 107.194-4.259h-.079a8.263 8.263 0 00-5.573 2.244 6.312 6.312 0 001.515 1.058c-.006 0-.478 2.542-.478 2.537a8.578 8.578 0 01-1.984-1.095q-.309-.228-.595-.485zm48.25-4.259a8.123 8.123 0 10.079 0zm-64.183-8.354q-3.283.011-6.558.019h-.114v14.17h6.941a7.1 7.1 0 006.714-9.328 7.094 7.094 0 00-6.713-4.862zm14.3-1.014l2.29 1.034a2.029 2.029 0 003.9-1.109 3.122 3.122 0 00-1.158-1.638 28.535 28.535 0 01-2.707-2.484 7.4 7.4 0 01-1.257-2.138A9.888 9.888 0 0128.3.367a6.86 6.86 0 01.027-.285l.01-.082 2.5.305a1.546 1.546 0 00.26.593 5.584 5.584 0 001.723 1.575 18.935 18.935 0 003.952 1.806 13.714 13.714 0 015.819 3.752 9.741 9.741 0 011.809 9.856 13.247 13.247 0 00-2.2-1.334 7.335 7.335 0 00-.483-5.371 8.8 8.8 0 00-3.517-3.5 22.46 22.46 0 00-3.254-1.385 19.327 19.327 0 01-3.2-1.524l-.036-.022.032.045a26.157 26.157 0 003 2.822 5.843 5.843 0 011.637 2.71 4.51 4.51 0 01-6.713 4.857 4.233 4.233 0 01-1.146-1.034l-.038-.053a6.255 6.255 0 00-.473 4.27 13.3 13.3 0 00-1.94 2.006 8.911 8.911 0 01-.722-4.054v-.084a8.618 8.618 0 01.336-1.838 9.038 9.038 0 012-3.469l.019-.02zm35.052 1.034a1.91 1.91 0 011.81 1.506 1.857 1.857 0 11-3.661.61 1.91 1.91 0 011.064-1.947 1.886 1.886 0 01.786-.169z" fill="#ff4d4d" fill-rule="evenodd"/></svg>