<svg xmlns="http://www.w3.org/2000/svg" viewBox="0 0 46.7 46.7"><defs><style/></defs><path class="a" d="M23.352 3.892a19.46 19.46 0 11-19.46 19.46 19.482 19.482 0 0119.46-19.46zm0-3.892A23.352 23.352 0 1046.7 23.352 23.353 23.353 0 0023.352 0zM36 17.082a9.589 9.589 0 01-2.752.755 4.812 4.812 0 002.108-2.65 9.587 9.587 0 01-3.044 1.162 4.793 4.793 0 00-8.164 4.369 13.608 13.608 0 01-9.874-5.005 4.8 4.8 0 001.483 6.4 4.782 4.782 0 01-2.168-.6 4.8 4.8 0 003.843 4.758 4.8 4.8 0 01-2.164.082 4.8 4.8 0 004.476 3.326 9.642 9.642 0 01-7.1 1.987 13.625 13.625 0 0020.96-12.1A9.658 9.658 0 0036 17.082z"/></svg>