<svg viewBox="0 0 315 256" xmlns="http://www.w3.org/2000/svg" fill-rule="evenodd" clip-rule="evenodd" stroke-linejoin="round" stroke-miterlimit="1.41"><path d="M0 226.953c28.598 18.34 62.566 29.039 99.066 29.039 118.872 0 183.872-98.473 183.872-183.879 0-2.797-.063-5.586-.184-8.359 12.629-9.11 23.582-20.492 32.246-33.453a129.19 129.19 0 01-37.117 10.179c13.344-8 23.59-20.664 28.414-35.754a129.375 129.375 0 01-41.035 15.68C253.473 7.848 236.676 0 218.086 0c-35.688 0-64.625 28.937-64.625 64.625 0 5.062.574 9.996 1.676 14.726C101.43 76.656 53.809 50.93 21.934 11.828c-5.563 9.547-8.75 20.645-8.75 32.492 0 22.418 11.406 42.199 28.75 53.789a64.366 64.366 0 01-29.274-8.086c-.004.274-.004.543-.004.817 0 31.308 22.278 57.429 51.84 63.367a64.88 64.88 0 01-17.027 2.269 64.31 64.31 0 01-12.16-1.164c8.222 25.676 32.093 44.36 60.371 44.879-22.118 17.336-49.985 27.668-80.262 27.668-5.219 0-10.363-.304-15.418-.906z" fill-rule="nonzero"/></svg>