<svg xmlns="http://www.w3.org/2000/svg" width="46.45" height="46.45" viewBox="0 0 46.45 46.45"><defs><style/></defs><path class="a" d="M31.413 13.746c-3.875-.263-12.507-.261-16.376 0-4.19.286-4.682 2.818-4.715 9.48.033 6.65.523 9.194 4.717 9.48 3.869.261 12.5.263 16.376 0 4.19-.286 4.684-2.82 4.717-9.48-.035-6.65-.525-9.194-4.719-9.48zM19.355 27.527v-8.6l9.245 4.291zm3.871-23.656A19.355 19.355 0 113.871 23.226 19.377 19.377 0 0123.226 3.871zm0-3.871a23.226 23.226 0 1023.226 23.226A23.227 23.227 0 0023.226 0z"/></svg>