<svg viewBox="0 0 315 220" xmlns="http://www.w3.org/2000/svg" fill-rule="evenodd" clip-rule="evenodd" stroke-linejoin="round" stroke-miterlimit="1.41"><path d="M39.535 215.2c39.059 4.351 78.586 4.38 117.949 4.351 39.375.028 78.911 0 117.954-4.35 16.492-1.845 30.195-14.212 34.054-30.962 5.492-23.848 5.508-49.902 5.508-74.465 0-24.558.051-50.6-5.445-74.449-3.86-16.766-17.559-29.117-34.059-30.957C236.441.001 196.906-.015 157.551.001c-39.363-.016-78.91 0-117.973 4.367C23.102 6.208 9.398 18.56 5.555 35.325.066 59.173 0 85.216 0 109.778c0 24.562 0 50.613 5.496 74.461 3.84 16.75 17.543 29.117 34.039 30.961zm77.32-160.692c33.375 17.415 66.54 34.708 100.137 52.24-33.5 17.366-66.668 34.573-100.137 51.928V54.508z" fill-rule="nonzero"/></svg>